<?xml version="1.0" encoding="utf-8"?>
<!-- Generator: Adobe Illustrator 15.1.0, SVG Export Plug-In . SVG Version: 6.00 Build 0)  -->
<!DOCTYPE svg PUBLIC "-//W3C//DTD SVG 1.1//EN" "http://www.w3.org/Graphics/SVG/1.1/DTD/svg11.dtd">
<svg version="1.1" id="Layer_1" xmlns="http://www.w3.org/2000/svg" xmlns:xlink="http://www.w3.org/1999/xlink" x="0px" y="0px"
	 width="253.5px" height="283px" viewBox="0 313.5 253.5 283" enable-background="new 0 313.5 253.5 283" xml:space="preserve">
<g>
	<path fill="#67281F" d="M131.648,572.179l-2.525-1.442C77.18,542.6,53.372,525.285,40.747,507.971
		C27.4,489.213,27.4,470.816,27.4,443.041v-81.884l104.249-28.136l104.249,28.136v81.884c0,27.775,0,46.172-13.347,64.93
		c-12.625,17.676-36.433,34.629-88.377,62.766L131.648,572.179z M38.222,369.453v73.588c0,26.693,0,42.926,11.182,58.437
		c11.183,15.511,34.269,32.104,82.245,58.438c47.976-26.333,71.062-42.565,82.245-58.438c11.182-15.871,11.182-31.743,11.182-58.437
		v-73.588l-93.427-25.25L38.222,369.453z"/>
</g>
<g>
	<path fill="#67281F" d="M322.47,361.157l12.265,45.09h0.722l13.347-45.09h-8.297v-7.214h24.169v7.575h-7.215l-19.118,58.798
		h-12.625l-11.183-40.04l-14.068,40.04h-12.625l-18.036-58.798h-8.657v-7.575h32.465v7.575h-9.379l12.986,45.091h0.721
		l12.986-37.876l-2.164-7.215h-8.657v-7.575h32.465v7.575L322.47,361.157L322.47,361.157z"/>
	<path fill="#67281F" d="M371.168,412.019h10.461v-50.861h-10.461v-7.575h33.547v7.575h-10.461v50.861h10.461v7.575h-33.547V412.019
		z"/>
	<path fill="#67281F" d="M446.197,353.943v7.575h-10.461v50.862h12.986c7.936,0,9.379-1.804,14.429-18.036h6.133v25.611h-56.272
		v-7.575h10.1v-50.862h-10.1v-7.575H446.197z"/>
	<path fill="#67281F" d="M510.045,353.943v7.575h-10.461v50.862h12.986c7.936,0,9.379-1.804,14.429-18.036h6.133v25.611h-56.272
		v-7.575h10.1v-50.862h-10.1v-7.575H510.045z"/>
	<path fill="#67281F" d="M540.707,412.019h10.461v-50.861h-10.461v-7.575h33.547v7.575h-10.461v50.861h10.461v7.575h-33.547V412.019
		z"/>
	<path fill="#67281F" d="M624.394,397.59h-23.086l-5.411,14.79h8.297v7.575h-24.168v-7.575h7.214l22.005-58.798h12.985
		l21.282,58.798h8.658v7.575h-32.465v-7.575h9.739L624.394,397.59z M603.833,390.736h18.396l-8.657-25.973h-0.36L603.833,390.736z"
		/>
	<path fill="#67281F" d="M658.302,412.019h9.379v-50.861h-9.379v-7.575h29.219l15.511,45.09h0.36l15.512-45.09H747.4v7.575H737.3
		v50.861H747.4v7.575h-31.383v-7.575h8.657V362.6h-1.082l-20.201,56.994h-5.771L676.698,362.6h-1.082v49.419h9.019v7.575h-26.333
		V412.019L658.302,412.019z"/>
	<path fill="#67281F" d="M296.498,499.313h11.183v-51.944h-3.607c-8.657,0-10.461,2.886-14.79,18.397h-6.132v-24.529h61.684v24.529
		h-6.133c-4.328-15.512-6.132-18.397-14.789-18.397h-3.607v51.944h11.183v7.575h-34.99V499.313L296.498,499.313z"/>
	<path fill="#67281F" d="M352.41,499.313h10.1v-50.861h-10.1v-7.575h32.465v7.575h-9.379v20.561h28.137v-20.561h-9.379v-7.575
		h32.465v7.575h-10.101v50.861h10.101v7.575h-32.465v-7.575h9.379v-23.086h-28.137v23.086h9.379v7.575H352.41V499.313
		L352.41,499.313z"/>
	<path fill="#67281F" d="M432.13,474.062c0-20.2,14.789-34.629,32.825-34.629c18.758,0,32.826,14.068,32.826,34.269
		s-14.79,34.629-32.826,34.629C446.559,508.692,432.13,494.624,432.13,474.062z M483.352,474.062
		c0-17.675-6.492-27.054-18.396-27.054s-18.396,9.379-18.396,27.054c0,17.676,6.492,27.055,18.396,27.055
		S483.352,491.738,483.352,474.062z"/>
	<path fill="#67281F" d="M503.553,499.313h9.378v-50.861h-9.378v-7.575h29.218l15.511,45.09h0.361l15.511-45.09h28.497v7.575h-10.1
		v50.861h10.1v7.575h-31.383v-7.575h8.657v-49.419h-1.082l-20.2,56.994h-5.771l-20.922-56.994h-1.082v49.419h9.018v7.575h-26.333
		L503.553,499.313L503.553,499.313z"/>
	<path fill="#67281F" d="M643.151,484.885h-23.086l-5.411,14.789h8.297v7.575h-24.168v-7.575h7.214l22.004-58.797h12.986
		l21.282,58.797h8.657v7.575h-32.465v-7.575h9.739L643.151,484.885z M622.229,478.031h18.397l-8.658-25.973h-0.36L622.229,478.031z"
		/>
	<path fill="#67281F" d="M677.42,484.163h7.215c6.132,12.265,11.182,17.314,20.922,17.314c7.575,0,11.903-3.968,11.903-10.1
		c0-7.215-7.575-9.019-16.954-11.544c-10.461-2.886-22.004-6.492-22.004-20.561c0-10.821,9.019-19.84,21.644-19.84
		c6.132,0,12.986,2.525,16.593,7.215l2.165-6.854h7.575v23.087h-7.215c-5.411-12.265-10.821-16.232-18.758-16.232
		c-6.492,0-10.461,3.968-10.461,9.379c0,7.936,8.297,9.739,17.676,12.264c10.461,2.525,21.644,5.771,21.644,19.479
		c0,11.903-9.739,20.922-23.087,20.922c-7.574,0-14.789-2.886-18.757-7.575l-2.165,7.214h-7.574L677.42,484.163L677.42,484.163z"/>
</g>
<g>
	<path fill="#67281F" d="M140.306,388.572l11.183,40.761h0.721l11.904-40.761h-7.575v-6.493h21.644v6.854h-6.493l-16.954,53.026
		h-11.543l-10.1-36.072l-12.625,36.072h-11.543L92.69,388.572h-7.936v-6.854h29.218v6.492h-8.657l11.543,40.762h0.722l11.904-34.269
		l-1.804-6.493h-7.575v-6.492h29.218v6.492C149.685,388.572,140.306,388.572,140.306,388.572z"/>
	<path fill="#67281F" d="M115.777,507.971h10.1v-46.894h-3.247c-7.575,0-9.378,2.524-13.347,16.593h-5.411v-22.364h55.551v22.364
		h-5.411c-3.968-14.068-5.771-16.593-13.347-16.593h-3.247v46.894h10.1v6.854h-31.743V507.971z"/>
</g>
<g>
	<path fill="#937450" d="M89.083,487.771c-2.886,2.886-3.968,6.854-3.607,9.739c2.886,0.36,6.493-1.082,9.379-4.328
		c2.886-2.887,3.968-6.854,3.607-9.74C95.576,483.081,91.969,484.523,89.083,487.771z"/>
</g>
<g>
	<path fill="#937450" d="M72.129,489.213c-3.968-0.721-7.936,0.361-10.1,2.165c1.443,2.524,4.689,4.689,8.657,5.41
		c3.968,0.722,7.936-0.36,10.1-2.164C79.344,492.099,76.097,489.935,72.129,489.213z"/>
</g>
<g>
	<path fill="#937450" d="M82.59,476.228c-2.525,3.246-3.607,6.854-2.886,9.739c2.886,0,6.493-1.804,9.018-4.689
		c2.525-3.246,3.607-6.854,2.886-9.739C88.723,471.538,85.476,473.342,82.59,476.228z"/>
</g>
<g>
	<path fill="#937450" d="M67.801,474.784c-3.968-0.722-7.936,0-10.1,1.804c1.082,2.525,4.329,5.05,8.296,5.771
		c3.968,0.722,7.936,0,10.1-1.804C75.015,478.031,71.769,475.506,67.801,474.784z"/>
</g>
<g>
	<path fill="#937450" d="M77.54,462.881c-2.886,2.886-4.689,6.493-4.329,9.379c2.886,0.36,6.493-0.722,9.379-3.607
		s4.689-6.493,4.329-9.379C84.033,458.912,80.426,459.995,77.54,462.881z"/>
</g>
<g>
	<path fill="#937450" d="M65.276,458.191c-3.968-1.443-7.936-1.443-10.1,0.36c0.721,2.886,3.607,5.411,7.575,7.215
		c3.968,1.442,7.936,1.442,10.101-0.361C71.769,462.52,68.883,459.634,65.276,458.191z"/>
</g>
<g>
	<path fill="#937450" d="M75.737,447.009c-2.886,2.886-4.689,6.493-4.329,9.379c2.886,0.36,6.493-0.722,9.378-3.607
		s4.689-6.493,4.329-9.379C82.59,442.68,78.623,444.123,75.737,447.009z"/>
</g>
<g>
	<path fill="#937450" d="M59.504,446.648c2.525,3.246,6.132,5.05,9.018,4.689c0.721-2.886-0.361-6.493-2.886-9.74
		c-2.525-3.246-6.132-5.05-9.018-4.689C55.897,439.794,56.619,443.401,59.504,446.648z"/>
</g>
<g>
	<path fill="#937450" d="M71.769,431.858c-1.803,3.968-1.803,7.575-0.36,10.101c2.886-0.722,5.771-3.247,7.575-7.215
		c1.803-3.968,1.803-7.575,0.36-10.1C76.458,425.365,73.572,428.251,71.769,431.858z"/>
</g>
<g>
	<path fill="#937450" d="M77.18,501.478c-3.968,0.722-7.575,2.525-8.657,5.05c2.164,2.165,5.771,3.247,10.1,2.525
		c3.968-0.722,7.575-2.525,8.657-5.05C85.115,502.199,81.147,501.117,77.18,501.478z"/>
</g>
<g>
	<path fill="#937450" d="M173.131,487.771c2.886,2.886,3.968,6.854,3.607,9.739c-2.886,0.36-6.493-1.082-9.379-4.328
		c-2.886-2.887-3.968-6.854-3.607-9.74C166.639,483.081,170.246,484.523,173.131,487.771z"/>
</g>
<g>
	<path fill="#937450" d="M190.085,489.213c3.968-0.721,7.936,0.361,10.1,2.165c-1.443,2.524-4.689,4.689-8.657,5.41
		c-3.968,0.722-7.936-0.36-10.1-2.164C182.51,492.099,185.757,489.935,190.085,489.213z"/>
</g>
<g>
	<path fill="#937450" d="M179.625,476.228c2.525,3.246,3.607,6.854,2.886,9.739c-2.886,0-6.493-1.804-9.018-4.689
		c-2.525-3.246-3.607-6.854-2.886-9.739C173.131,471.538,176.739,473.342,179.625,476.228z"/>
</g>
<g>
	<path fill="#937450" d="M194.414,474.784c3.968-0.722,7.936,0,10.1,1.804c-1.082,2.525-4.329,5.05-8.296,5.771
		c-3.968,0.722-7.936,0-10.101-1.804C187.2,478.031,190.446,475.506,194.414,474.784z"/>
</g>
<g>
	<path fill="#937450" d="M184.674,462.881c2.886,2.886,4.689,6.493,4.329,9.379c-2.886,0.36-6.493-0.722-9.379-3.607
		s-4.689-6.493-4.329-9.379C178.182,458.912,181.789,459.995,184.674,462.881z"/>
</g>
<g>
	<path fill="#937450" d="M196.939,458.191c3.968-1.443,7.936-1.443,10.1,0.36c-0.721,2.886-3.607,5.411-7.575,7.215
		c-3.968,1.442-7.936,1.442-10.101-0.361C190.446,462.52,193.332,459.634,196.939,458.191z"/>
</g>
<g>
	<path fill="#937450" d="M186.478,447.009c2.886,2.886,4.689,6.493,4.329,9.379c-2.886,0.36-6.493-0.722-9.378-3.607
		s-4.689-6.493-4.329-9.379C179.625,442.68,183.592,444.123,186.478,447.009z"/>
</g>
<g>
	<path fill="#937450" d="M202.71,446.648c-2.525,3.246-6.132,5.05-9.018,4.689c-0.721-2.886,0.361-6.493,2.886-9.74
		c2.525-3.246,6.132-5.05,9.018-4.689C206.318,439.794,205.236,443.401,202.71,446.648z"/>
</g>
<g>
	<path fill="#937450" d="M190.446,431.858c1.803,3.968,1.803,7.575,0.36,10.101c-2.886-0.722-5.771-3.247-7.575-7.215
		c-1.803-3.968-1.803-7.575-0.36-10.1C185.757,425.365,188.643,428.251,190.446,431.858z"/>
</g>
<g>
	<path fill="#937450" d="M185.035,501.478c3.968,0.722,7.575,2.525,8.657,5.05c-2.164,2.165-5.771,3.247-10.1,2.525
		c-3.968-0.722-7.575-2.525-8.657-5.05C177.1,502.199,181.067,501.117,185.035,501.478z"/>
</g>
<g>
	<path fill="#937450" d="M356.378,559.915c-1.804,0.721-3.607,0.721-5.411,0.721c-1.442,0-2.524-0.36-3.606-0.721
		c-1.083-0.361-1.804-1.083-2.886-1.804c-0.722-0.722-1.083-1.443-1.804-2.525c-0.361-0.722-0.722-1.804-0.722-2.525
		c0-1.082,0.36-2.164,0.722-3.246c0.36-1.082,1.082-1.804,1.804-2.525c0.721-0.721,1.442-1.442,2.524-2.164s2.164-1.082,3.247-1.804
		c-1.083-1.442-1.804-2.524-2.525-3.607c-0.722-1.082-1.082-2.164-1.082-3.606c0-1.443,0.36-2.525,0.721-3.247
		c0.361-1.082,1.083-1.804,1.804-2.164c0.722-0.722,1.804-1.082,2.525-1.082c1.082-0.361,2.164-0.361,2.886-0.361
		c1.082,0,2.164,0,2.886,0.361c0.722,0.36,1.804,0.722,2.525,1.082s1.082,1.082,1.442,1.804c0.361,0.722,0.722,1.442,0.722,2.524
		c0,1.443-0.36,2.886-1.442,3.969c-1.083,1.082-2.525,2.524-4.329,3.606c1.082,1.443,2.525,2.886,3.607,4.329
		c1.082,1.442,2.524,2.886,3.607,4.329c0.721-1.083,1.803-2.165,2.524-3.607c0.722-1.443,1.804-3.247,2.886-5.051
		c0.361,0.361,0.722,1.083,1.082,1.443c0.361,0.36,0.722,0.722,1.083,1.082c-1.083,1.443-2.165,2.886-2.887,3.968
		c-1.082,1.082-2.164,2.525-3.246,3.607c0.36,0.722,1.082,1.082,1.443,1.804c0.721,0.722,1.082,1.082,1.803,1.804
		c0.722,0.722,1.083,1.082,1.804,1.804c0.722,0.721,1.083,1.082,1.804,1.442c-1.082,0-2.164,0-2.886,0s-1.804,0-2.524,0
		c-0.722,0-1.083,0-1.804,0c-0.722,0-1.082,0-1.804,0l-2.164-2.886C359.985,558.832,358.182,559.554,356.378,559.915z
		 M348.803,553.782c0.36,0.722,0.722,1.443,1.443,2.164c0.721,0.722,1.082,1.083,2.164,1.443c0.722,0.36,1.804,0.722,2.886,0.722
		s1.804,0,2.524-0.361c0.722-0.36,1.443-0.721,2.165-1.442c-1.443-1.804-2.886-3.247-3.968-5.05
		c-1.443-1.804-2.525-3.247-3.969-5.051c-1.082,0.722-1.803,1.804-2.524,2.525s-1.082,1.804-1.082,2.886
		C348.442,552.34,348.442,553.061,348.803,553.782z M353.853,537.91c0.722,1.083,1.083,2.165,1.804,3.247
		c0.361-0.361,0.722-0.722,1.082-1.082c0.361-0.361,0.722-1.083,1.083-1.443c0.36-0.722,0.721-1.082,1.082-1.804
		c0.36-0.721,0.36-1.442,0.36-2.164c0-1.082-0.36-1.804-1.082-2.525c-0.722-0.721-1.443-1.082-2.164-1.082
		c-0.722,0-1.804,0.361-2.165,0.722c-0.721,0.722-1.082,1.442-1.082,2.525C353.132,535.746,353.492,536.828,353.853,537.91z"/>
	<path fill="#937450" d="M422.39,560.275c-0.721,0-1.442,0-2.164,0s-1.442,0-1.804,0c-0.36,0-1.082,0-1.804,0s-1.442,0-1.804,0
		c-0.36-1.443-1.082-2.886-1.442-4.689c-0.722-1.442-1.082-2.886-1.804-4.689c-1.082,0-1.804,0-2.886,0s-1.804,0-2.886,0
		c-0.722,0-1.443,0-2.164,0c-0.722,0-1.443,0-2.165,0c-0.722,1.443-1.082,2.886-1.804,4.689c-0.721,1.443-1.082,2.886-1.442,4.689
		c-0.36,0-0.722,0-1.082,0c-0.361,0-0.722,0-1.082,0c-0.361,0-0.722,0-1.083,0c-0.36,0-0.721,0-1.082,0
		c0.361-0.722,0.722-1.804,1.443-3.246c0.721-1.443,1.082-2.886,2.164-4.689c0.722-1.804,1.443-3.607,2.164-5.771
		c0.722-2.165,1.804-3.969,2.525-6.133s1.804-3.968,2.525-6.132c0.721-2.165,1.442-3.968,2.164-5.411c0.36,0,0.722,0,0.722,0
		c0.36,0,0.721,0,0.721,0c0.361,0,0.722,0,0.722,0c0.361,0,0.722,0,0.722,0c1.082,2.525,2.164,5.411,3.246,8.297
		s2.165,5.771,3.247,8.657s2.164,5.411,3.246,7.936C420.586,556.308,421.669,558.832,422.39,560.275z M406.157,537.91
		c-0.722,1.804-1.442,3.607-2.164,5.411s-1.443,3.607-2.164,5.411h8.296c-0.721-1.804-1.442-3.607-1.803-5.411
		C407.601,541.518,406.879,539.714,406.157,537.91z"/>
	<path fill="#937450" d="M437.901,531.418c-1.443,0-2.525,0.36-3.247,1.082s-1.442,1.804-1.442,2.886s0.36,2.164,1.082,2.886
		s1.442,1.442,2.524,1.804c1.083,0.722,2.165,1.082,3.247,1.804c1.082,0.721,2.164,1.082,3.246,1.804
		c1.082,0.721,1.804,1.803,2.525,2.886c0.722,1.082,1.082,2.524,1.082,4.328c0,1.443-0.36,2.886-0.722,3.968
		c-0.721,1.083-1.442,2.165-2.524,3.247c-1.083,0.721-2.165,1.442-3.607,2.164c-1.443,0.36-3.247,0.722-5.05,0.722
		c-1.804,0-3.247,0-4.329-0.722c-1.082-0.36-2.164-0.722-2.886-1.443c0.36-1.082,0.722-2.164,0.722-2.885
		c0.36-0.722,0.36-1.804,0.722-2.887h0.721c0,0.722,0.361,1.443,0.722,1.804c0.36,0.722,0.722,1.083,1.082,1.443
		c0.722,0.36,1.082,0.722,1.804,1.082s1.443,0.36,2.525,0.36c1.804,0,3.246-0.36,3.968-1.442s1.442-2.164,1.442-3.247
		c0-1.082-0.36-2.164-1.082-2.886c-0.721-0.721-1.442-1.442-2.524-1.803c-1.083-0.722-2.165-1.083-3.247-1.804
		c-1.082-0.722-2.164-1.082-3.246-1.804s-1.804-1.804-2.525-2.886s-1.082-2.525-1.082-4.329c0-1.442,0.36-2.886,0.722-3.968
		c0.722-1.082,1.442-2.164,2.164-2.886c1.082-0.722,2.164-1.442,3.246-1.804c1.083-0.36,2.525-0.722,3.969-0.722
		c1.804,0,2.886,0.361,4.328,0.722c1.082,0.361,2.164,1.082,3.247,1.804c-0.361,0.722-0.361,1.442-0.722,2.164
		c-0.361,0.722-0.361,1.443-0.722,2.525h-0.722C442.59,532.86,440.787,531.418,437.901,531.418z"/>
	<path fill="#937450" d="M463.151,531.418c-1.442,0-2.525,0.36-3.246,1.082c-0.722,0.722-1.443,1.804-1.443,2.886
		s0.361,2.164,1.082,2.886c0.722,0.722,1.443,1.442,2.525,1.804c1.082,0.722,2.164,1.082,3.246,1.804
		c1.083,0.721,2.165,1.082,3.247,1.804c1.082,0.721,1.804,1.803,2.524,2.886c0.722,1.082,1.083,2.524,1.083,4.328
		c0,1.443-0.361,2.886-0.722,3.968c-0.722,1.083-1.443,2.165-2.525,3.247c-1.082,0.721-2.524,1.442-3.607,2.164
		c-1.442,0.36-3.246,0.722-5.05,0.722s-3.246,0-4.328-0.722c-1.083-0.36-2.165-0.722-2.887-1.443
		c0.361-1.082,0.722-2.164,0.722-2.885c0.361-0.722,0.361-1.804,0.722-2.887h0.722c0,0.722,0.36,1.443,0.722,1.804
		c0.36,0.722,0.721,1.083,1.082,1.443c0.721,0.36,1.082,0.722,1.804,1.082c0.721,0.36,1.442,0.36,2.524,0.36
		c1.804,0,3.247-0.36,3.968-1.442c0.722-1.082,1.443-2.164,1.443-3.247c0-1.082-0.36-2.164-1.082-2.886
		c-0.722-0.721-1.443-1.442-2.525-1.803c-1.082-0.722-2.164-1.083-3.246-1.804c-1.082-0.722-2.165-1.082-3.247-1.804
		s-1.804-1.804-2.524-2.886c-0.722-1.082-1.083-2.525-1.083-4.329c0-1.442,0.361-2.886,0.722-3.968
		c0.722-1.082,1.443-2.164,2.165-2.886c1.082-0.722,2.164-1.442,3.246-1.804c1.082-0.36,2.525-0.722,3.968-0.722
		c1.804,0,2.886,0.361,4.329,0.722c1.442,0.36,2.164,1.082,3.246,1.804c-0.36,0.722-0.36,1.442-0.722,2.164
		c-0.36,0.722-0.36,1.443-0.721,2.525h-0.722C467.841,532.86,465.677,531.418,463.151,531.418z"/>
	<path fill="#937450" d="M479.384,538.632c0.722-1.804,2.164-3.607,3.607-5.05c1.442-1.443,3.246-2.525,5.411-3.607
		c2.164-0.722,4.689-1.082,7.214-1.082c2.525,0,4.689,0.36,6.854,1.082c2.165,0.722,3.969,1.804,5.411,2.886
		c1.443,1.443,2.886,2.886,3.607,5.05c0.722,2.165,1.442,4.329,1.442,7.215c0,2.164-0.36,4.329-1.442,6.493
		c-0.722,1.804-2.164,3.607-3.607,5.05c-1.442,1.443-3.246,2.525-5.411,3.607c-2.164,0.722-4.328,1.082-6.854,1.082
		c-2.524,0-4.689-0.36-6.854-0.722c-2.164-0.36-3.968-1.442-5.411-2.886c-1.442-1.442-2.886-2.886-3.606-5.05
		c-1.083-2.164-1.443-4.329-1.443-7.215C477.941,542.6,478.302,540.436,479.384,538.632z M504.273,538.632
		c-0.36-1.442-1.082-2.886-2.164-3.968s-1.804-1.804-3.246-2.525c-1.083-0.721-2.525-0.721-3.969-0.721
		c-1.442,0-2.886,0.36-3.968,1.082s-2.164,1.804-3.246,2.886c-0.722,1.082-1.443,2.886-1.804,4.328
		c-0.36,1.804-0.722,3.607-0.722,5.411c0,2.525,0.361,4.329,0.722,6.133c0.722,1.803,1.082,2.886,2.164,3.968
		c0.722,1.082,1.804,1.804,2.886,2.164s2.525,0.722,3.607,0.722c1.443,0,2.525-0.361,3.968-0.722
		c1.082-0.722,2.165-1.442,3.247-2.525c1.082-1.082,1.804-2.524,2.164-4.328c0.722-1.804,0.722-3.968,0.722-6.493
		C505.355,541.879,504.995,540.075,504.273,538.632z"/>
	<path fill="#937450" d="M545.035,557.029c0,0.721-0.36,1.442-0.36,1.803c-2.525,1.083-5.411,1.804-9.379,1.804
		c-2.525,0-5.05-0.36-6.854-1.082c-2.165-0.722-3.969-1.804-5.411-3.246c-1.443-1.443-2.525-2.886-3.246-4.689
		c-0.722-1.804-1.083-3.968-1.083-6.133c0-3.246,0.361-5.771,1.443-7.936s2.164-3.968,3.968-5.411
		c1.804-1.442,3.607-2.164,5.771-2.886c2.164-0.721,4.329-1.082,6.854-1.082c0.722,0,1.804,0,2.525,0s1.804,0.361,2.525,0.361
		c0.721,0.36,1.442,0.36,2.164,0.721c0.722,0.361,1.442,0.722,1.804,0.722c-0.361,0.722-0.722,1.443-0.722,2.164
		c0,0.722-0.36,1.443-0.36,2.165h-0.722c-1.082-1.443-2.525-2.525-3.607-3.247c-1.082-0.721-2.525-1.082-4.328-1.082
		c-1.083,0-2.525,0.361-3.607,0.722c-1.082,0.722-2.164,1.442-3.247,2.525c-1.082,1.082-1.804,2.524-2.524,4.328
		c-0.722,1.804-1.082,3.968-1.082,6.132c0,2.525,0.36,4.329,1.082,5.772c0.721,1.804,1.442,2.886,2.524,3.968
		c1.083,1.082,2.165,1.804,3.607,2.164c1.443,0.361,2.525,0.722,3.968,0.722c0.722,0,1.443,0,2.165-0.361
		c0.721,0,1.442-0.36,2.164-0.721c0.722-0.361,1.442-0.722,2.164-1.082c0.722-0.361,1.082-0.722,1.804-1.443l0.722,0.36
		C545.396,555.946,545.035,556.668,545.035,557.029z"/>
	<path fill="#937450" d="M553.332,535.024c0-1.803,0-3.968-0.361-5.771c0.722,0,1.082,0,1.804,0s1.082,0,2.165,0
		c0.721,0,1.442,0,2.164,0s1.082,0,1.804,0c0,1.804-0.361,3.969-0.361,5.771c0,1.804,0,3.969,0,6.854v6.132c0,2.525,0,4.689,0,6.854
		c0,1.804,0,3.968,0.361,5.771c-0.722,0-1.082,0-1.804,0s-1.082,0-2.164,0c-0.722,0-1.443,0-2.165,0s-1.082,0-1.804,0
		c0-1.804,0.361-3.606,0.361-5.771c0-1.804,0-3.968,0-6.854v-6.132C553.692,539.354,553.332,537.189,553.332,535.024z"/>
	<path fill="#937450" d="M596.258,560.275c-0.722,0-1.443,0-2.164,0c-0.722,0-1.443,0-1.804,0c-0.722,0-1.082,0-1.804,0
		s-1.443,0-1.804,0c-0.36-1.443-1.082-2.886-1.443-4.689c-0.721-1.442-1.082-2.886-1.804-4.689c-1.082,0-1.803,0-2.885,0
		c-1.083,0-1.804,0-2.887,0c-0.721,0-1.442,0-2.164,0s-1.442,0-2.525,0c-0.721,1.443-1.082,2.886-1.803,4.689
		c-0.722,1.443-1.083,2.886-1.443,4.689c-0.36,0-0.722,0-1.082,0s-0.722,0-1.082,0c-0.361,0-0.722,0-1.082,0
		c-0.361,0-0.722,0-1.082,0c0.36-0.722,0.721-1.804,1.442-3.246c0.722-1.443,1.082-2.886,2.164-4.689
		c0.722-1.804,1.443-3.607,2.165-5.771c0.721-2.165,1.803-3.969,2.524-6.133s1.804-3.968,2.525-6.132
		c0.722-2.165,1.442-3.968,2.164-5.411c0.361,0,0.722,0,0.722,0c0.36,0,0.722,0,0.722,0c0.36,0,0.721,0,0.721,0
		c0.361,0,0.722,0,0.722,0c1.082,2.525,2.164,5.411,3.247,8.297c1.082,2.886,2.164,5.771,3.246,8.657s2.164,5.411,3.246,7.936
		C594.454,556.308,595.176,558.832,596.258,560.275z M580.025,537.91c-0.722,1.804-1.443,3.607-2.164,5.411
		c-0.722,1.804-1.443,3.607-2.165,5.411h8.297c-0.722-1.804-1.442-3.607-1.804-5.411
		C581.468,541.518,580.747,539.714,580.025,537.91z"/>
	<path fill="#937450" d="M605.637,534.304c0-0.722,0-1.083,0-1.443c-0.361,0-1.082,0-1.804,0s-1.443,0-2.165,0
		c-0.721,0-1.442,0-2.164,0s-1.442,0-2.164,0.361c0-0.361,0-0.722,0-1.083c0-0.36,0-0.721,0-1.082c0-0.36,0-0.721,0-1.082
		c0-0.36,0-0.722,0-1.082c1.082,0,1.804,0,2.886,0s1.804,0,2.525,0c0.721,0,1.804,0,2.886,0s2.164,0,3.606,0
		c1.443,0,2.525,0,3.607,0s1.804,0,2.886,0c0.722,0,1.804,0,2.525,0s1.804,0,2.525,0c0,0.36,0,0.722,0,1.082
		c0,0.361,0,0.722,0,1.082c0,0.361,0,0.722,0,1.082c0,0.361,0,0.722,0,1.083c-0.722,0-1.083,0-2.165-0.361c-0.722,0-1.442,0-2.164,0
		s-1.443,0-2.164,0c-0.722,0-1.083,0-1.804,0c0,0,0,0.361,0,0.722s0,0.722,0,1.082v2.525v11.182c0,2.525,0,4.689,0,6.854
		c0,1.804,0,3.968,0.36,5.771c-0.722,0-1.082,0-1.804,0c-0.721,0-1.082,0-2.164,0c-0.722,0-1.443,0-2.164,0
		c-0.722,0-1.082,0-1.804,0c0-1.804,0.36-3.607,0.36-5.771c0-1.804,0-3.969,0-6.854v-11.903
		C605.637,535.746,605.637,535.024,605.637,534.304z"/>
	<path fill="#937450" d="M626.919,535.024c0-1.803,0-3.968-0.36-5.771c1.442,0,2.886,0,3.968,0c1.442,0,2.524,0,3.968,0
		c2.164,0,4.329,0,5.771,0c1.804,0,2.886,0,3.607,0c0,0.361,0,1.083,0,1.804c0,0.361,0,0.722,0,1.082c0,0.361,0,0.722,0,1.083
		c-0.722,0-1.804,0-2.886,0s-2.164,0-2.886,0c-1.082,0-1.804,0-2.525,0s-1.442,0-1.804,0c0,1.803,0,3.246-0.36,5.05
		c0,1.804,0,3.246,0,5.05c1.804,0,3.607,0,5.411,0c1.442,0,3.246,0,5.05-0.36c0,0.721,0,1.082,0,1.082c0,0.36,0,0.722,0,0.722
		c0,0.36,0,0.36,0,0.721c0,0.361,0,0.722,0,1.083c-3.607-0.361-6.854-0.361-10.461-0.361c0,1.082,0,1.804,0,2.886s0,1.804,0,2.886
		c0,1.804,0,3.968,0,5.771c1.804,0,3.607,0,5.05,0c1.443,0,3.607-0.36,5.411-0.36c0,0.36,0,0.722,0,1.082s0,0.722,0,1.082
		c0,0.361,0,0.722,0,1.082c0,0.361,0,0.361,0,0.722c-0.722,0-1.804,0-2.886,0s-2.886,0-5.05,0c-1.804,0-3.247,0-4.329,0
		s-2.164,0-2.886,0s-1.082,0-1.443,0c-0.36,0-0.721,0-0.721,0c0-1.804,0-3.607,0.36-5.771c0-1.804,0-3.968,0-6.854V542.6
		C627.279,539.354,627.279,537.189,626.919,535.024z"/>
	<path fill="#937450" d="M660.827,531.418c-1.443,0-2.525,0.36-3.247,1.082c-0.721,0.722-1.442,1.804-1.442,2.886
		s0.36,2.164,1.082,2.886s1.442,1.442,2.525,1.804c1.082,0.722,2.164,1.082,3.246,1.804c1.082,0.721,2.164,1.082,3.246,1.804
		c1.083,0.721,1.804,1.803,2.525,2.886c0.722,1.082,1.082,2.524,1.082,4.328c0,1.443-0.36,2.886-0.722,3.968
		c-0.721,1.083-1.442,2.165-2.524,3.247c-1.082,0.721-2.525,1.442-3.607,2.164c-1.443,0.36-3.246,0.722-5.05,0.722
		s-3.247,0-4.329-0.722c-1.082-0.36-2.164-0.722-2.886-1.443c0.361-1.082,0.722-2.164,0.722-2.885
		c0.36-0.722,0.36-1.804,0.722-2.887h0.721c0,0.722,0.361,1.443,0.722,1.804c0.36,0.722,0.722,1.083,1.082,1.443
		c0.722,0.36,1.082,0.722,1.804,1.082s1.443,0.36,2.525,0.36c1.804,0,3.246-0.36,3.968-1.442s1.442-2.164,1.442-3.247
		c0-1.082-0.36-2.164-1.082-2.886c-0.721-0.721-1.442-1.442-2.524-1.803c-1.083-0.722-2.165-1.083-3.247-1.804
		c-1.082-0.722-2.164-1.082-3.246-1.804s-1.804-1.804-2.525-2.886c-0.721-1.082-1.082-2.525-1.082-4.329
		c0-1.442,0.361-2.886,0.722-3.968c0.722-1.082,1.442-2.164,2.164-2.886c1.082-0.722,2.164-1.442,3.247-1.804
		c1.082-0.36,2.524-0.722,3.968-0.722c1.804,0,2.886,0.361,4.328,0.722c1.443,0.36,2.165,1.082,3.247,1.804
		c-0.361,0.722-0.361,1.442-0.722,2.164s-0.36,1.443-0.722,2.525h-0.722C665.155,532.86,663.352,531.418,660.827,531.418z"/>
</g>
</svg>
