<?xml version="1.0" encoding="utf-8"?>
<!-- Generator: Adobe Illustrator 15.1.0, SVG Export Plug-In . SVG Version: 6.00 Build 0)  -->
<!DOCTYPE svg PUBLIC "-//W3C//DTD SVG 1.1//EN" "http://www.w3.org/Graphics/SVG/1.1/DTD/svg11.dtd">
<svg version="1.1" id="Layer_1" xmlns="http://www.w3.org/2000/svg" xmlns:xlink="http://www.w3.org/1999/xlink" x="0px" y="0px"
	 width="28.499px" height="36.276px" viewBox="117.399 432.667 28.499 36.276"
	 enable-background="new 117.399 432.667 28.499 36.276" xml:space="preserve">
<g>
	<path fill="none" stroke="#67281F" stroke-miterlimit="10" d="M322.47,361.157l12.265,45.09h0.722l13.347-45.09h-8.297v-7.214
		h24.169v7.575h-7.215l-19.118,58.798h-12.625l-11.183-40.04l-14.068,40.04h-12.625l-18.036-58.798h-8.657v-7.575h32.465v7.575
		h-9.379l12.986,45.091h0.721l12.986-37.876l-2.164-7.215h-8.657v-7.575h32.465v7.575L322.47,361.157L322.47,361.157z"/>
	<path fill="none" stroke="#67281F" stroke-miterlimit="10" d="M371.168,412.019h10.461v-50.861h-10.461v-7.575h33.547v7.575
		h-10.461v50.861h10.461v7.575h-33.547V412.019z"/>
	<path fill="none" stroke="#67281F" stroke-miterlimit="10" d="M446.197,353.943v7.575h-10.461v50.862h12.986
		c7.936,0,9.379-1.804,14.429-18.036h6.133v25.611h-56.272v-7.575h10.1v-50.862h-10.1v-7.575H446.197z"/>
	<path fill="none" stroke="#67281F" stroke-miterlimit="10" d="M510.045,353.943v7.575h-10.461v50.862h12.986
		c7.936,0,9.379-1.804,14.429-18.036h6.133v25.611h-56.272v-7.575h10.1v-50.862h-10.1v-7.575H510.045z"/>
	<path fill="none" stroke="#67281F" stroke-miterlimit="10" d="M540.707,412.019h10.461v-50.861h-10.461v-7.575h33.547v7.575
		h-10.461v50.861h10.461v7.575h-33.547V412.019z"/>
	<path fill="none" stroke="#67281F" stroke-miterlimit="10" d="M624.394,397.59h-23.086l-5.411,14.79h8.297v7.575h-24.168v-7.575
		h7.214l22.005-58.798h12.985l21.282,58.798h8.658v7.575h-32.465v-7.575h9.739L624.394,397.59z M603.833,390.736h18.396
		l-8.657-25.973h-0.36L603.833,390.736z"/>
	<path fill="none" stroke="#67281F" stroke-miterlimit="10" d="M658.302,412.019h9.379v-50.861h-9.379v-7.575h29.219l15.511,45.09
		h0.36l15.512-45.09H747.4v7.575H737.3v50.861H747.4v7.575h-31.383v-7.575h8.657V362.6h-1.082l-20.201,56.994h-5.771L676.698,362.6
		h-1.082v49.419h9.019v7.575h-26.333V412.019L658.302,412.019z"/>
	<path fill="none" stroke="#67281F" stroke-miterlimit="10" d="M296.498,499.313h11.183v-51.944h-3.607
		c-8.657,0-10.461,2.886-14.79,18.397h-6.132v-24.529h61.684v24.529h-6.133c-4.328-15.512-6.132-18.397-14.789-18.397h-3.607v51.944
		h11.183v7.575h-34.99V499.313L296.498,499.313z"/>
	<path fill="none" stroke="#67281F" stroke-miterlimit="10" d="M352.41,499.313h10.1v-50.861h-10.1v-7.575h32.465v7.575h-9.379
		v20.561h28.137v-20.561h-9.379v-7.575h32.465v7.575h-10.101v50.861h10.101v7.575h-32.465v-7.575h9.379v-23.086h-28.137v23.086
		h9.379v7.575H352.41V499.313L352.41,499.313z"/>
	<path fill="none" stroke="#67281F" stroke-miterlimit="10" d="M432.13,474.062c0-20.2,14.789-34.629,32.825-34.629
		c18.758,0,32.826,14.068,32.826,34.269s-14.79,34.629-32.826,34.629C446.559,508.692,432.13,494.624,432.13,474.062z
		 M483.352,474.062c0-17.675-6.492-27.054-18.396-27.054s-18.396,9.379-18.396,27.054c0,17.676,6.492,27.055,18.396,27.055
		S483.352,491.738,483.352,474.062z"/>
	<path fill="none" stroke="#67281F" stroke-miterlimit="10" d="M503.553,499.313h9.378v-50.861h-9.378v-7.575h29.218l15.511,45.09
		h0.361l15.511-45.09h28.497v7.575h-10.1v50.861h10.1v7.575h-31.383v-7.575h8.657v-49.419h-1.082l-20.2,56.994h-5.771
		l-20.922-56.994h-1.082v49.419h9.018v7.575h-26.333L503.553,499.313L503.553,499.313z"/>
	<path fill="none" stroke="#67281F" stroke-miterlimit="10" d="M643.151,484.885h-23.086l-5.411,14.789h8.297v7.575h-24.168v-7.575
		h7.214l22.004-58.797h12.986l21.282,58.797h8.657v7.575h-32.465v-7.575h9.739L643.151,484.885z M622.229,478.031h18.397
		l-8.658-25.973h-0.36L622.229,478.031z"/>
	<path fill="none" stroke="#67281F" stroke-miterlimit="10" d="M677.42,484.163h7.215c6.132,12.265,11.182,17.314,20.922,17.314
		c7.575,0,11.903-3.968,11.903-10.1c0-7.215-7.575-9.019-16.954-11.544c-10.461-2.886-22.004-6.492-22.004-20.561
		c0-10.821,9.019-19.84,21.644-19.84c6.132,0,12.986,2.525,16.593,7.215l2.165-6.854h7.575v23.087h-7.215
		c-5.411-12.265-10.821-16.232-18.758-16.232c-6.492,0-10.461,3.968-10.461,9.379c0,7.936,8.297,9.739,17.676,12.264
		c10.461,2.525,21.644,5.771,21.644,19.479c0,11.903-9.739,20.922-23.087,20.922c-7.574,0-14.789-2.886-18.757-7.575l-2.165,7.214
		h-7.574L677.42,484.163L677.42,484.163z"/>
</g>
<g>
	<path fill="#937450" d="M356.378,559.915c-1.804,0.721-3.607,0.721-5.411,0.721c-1.442,0-2.524-0.36-3.606-0.721
		c-1.083-0.361-1.804-1.083-2.886-1.804c-0.722-0.722-1.083-1.443-1.804-2.525c-0.361-0.722-0.722-1.804-0.722-2.525
		c0-1.082,0.36-2.164,0.722-3.246c0.36-1.082,1.082-1.804,1.804-2.525c0.721-0.721,1.442-1.442,2.524-2.164s2.164-1.082,3.247-1.804
		c-1.083-1.442-1.804-2.524-2.525-3.607c-0.722-1.082-1.082-2.164-1.082-3.606c0-1.443,0.36-2.525,0.721-3.247
		c0.361-1.082,1.083-1.804,1.804-2.164c0.722-0.722,1.804-1.082,2.525-1.082c1.082-0.361,2.164-0.361,2.886-0.361
		c1.082,0,2.164,0,2.886,0.361c0.722,0.36,1.804,0.722,2.525,1.082s1.082,1.082,1.442,1.804c0.361,0.722,0.722,1.442,0.722,2.524
		c0,1.443-0.36,2.886-1.442,3.969c-1.083,1.082-2.525,2.524-4.329,3.606c1.082,1.443,2.525,2.886,3.607,4.329
		c1.082,1.442,2.524,2.886,3.607,4.329c0.721-1.083,1.803-2.165,2.524-3.607c0.722-1.443,1.804-3.247,2.886-5.051
		c0.361,0.361,0.722,1.083,1.082,1.443c0.361,0.36,0.722,0.722,1.083,1.082c-1.083,1.443-2.165,2.886-2.887,3.968
		c-1.082,1.082-2.164,2.525-3.246,3.607c0.36,0.722,1.082,1.082,1.443,1.804c0.721,0.722,1.082,1.082,1.803,1.804
		c0.722,0.722,1.083,1.082,1.804,1.804c0.722,0.721,1.083,1.082,1.804,1.442c-1.082,0-2.164,0-2.886,0s-1.804,0-2.524,0
		c-0.722,0-1.083,0-1.804,0c-0.722,0-1.082,0-1.804,0l-2.164-2.886C359.985,558.832,358.182,559.554,356.378,559.915z
		 M348.803,553.782c0.36,0.722,0.722,1.443,1.443,2.164c0.721,0.722,1.082,1.083,2.164,1.443c0.722,0.36,1.804,0.722,2.886,0.722
		s1.804,0,2.524-0.361c0.722-0.36,1.443-0.721,2.165-1.442c-1.443-1.804-2.886-3.247-3.968-5.05
		c-1.443-1.804-2.525-3.247-3.969-5.051c-1.082,0.722-1.803,1.804-2.524,2.525s-1.082,1.804-1.082,2.886
		C348.442,552.34,348.442,553.061,348.803,553.782z M353.853,537.91c0.722,1.083,1.083,2.165,1.804,3.247
		c0.361-0.361,0.722-0.722,1.082-1.082c0.361-0.361,0.722-1.083,1.083-1.443c0.36-0.722,0.721-1.082,1.082-1.804
		c0.36-0.721,0.36-1.442,0.36-2.164c0-1.082-0.36-1.804-1.082-2.525c-0.722-0.721-1.443-1.082-2.164-1.082
		c-0.722,0-1.804,0.361-2.165,0.722c-0.721,0.722-1.082,1.442-1.082,2.525C353.132,535.746,353.492,536.828,353.853,537.91z"/>
	<path fill="#937450" d="M422.39,560.275c-0.721,0-1.442,0-2.164,0s-1.442,0-1.804,0c-0.36,0-1.082,0-1.804,0s-1.442,0-1.804,0
		c-0.36-1.443-1.082-2.886-1.442-4.689c-0.722-1.442-1.082-2.886-1.804-4.689c-1.082,0-1.804,0-2.886,0s-1.804,0-2.886,0
		c-0.722,0-1.443,0-2.164,0c-0.722,0-1.443,0-2.165,0c-0.722,1.443-1.082,2.886-1.804,4.689c-0.721,1.443-1.082,2.886-1.442,4.689
		c-0.36,0-0.722,0-1.082,0c-0.361,0-0.722,0-1.082,0c-0.361,0-0.722,0-1.083,0c-0.36,0-0.721,0-1.082,0
		c0.361-0.722,0.722-1.804,1.443-3.246c0.721-1.443,1.082-2.886,2.164-4.689c0.722-1.804,1.443-3.607,2.164-5.771
		c0.722-2.165,1.804-3.969,2.525-6.133s1.804-3.968,2.525-6.132c0.721-2.165,1.442-3.968,2.164-5.411c0.36,0,0.722,0,0.722,0
		c0.36,0,0.721,0,0.721,0c0.361,0,0.722,0,0.722,0c0.361,0,0.722,0,0.722,0c1.082,2.525,2.164,5.411,3.246,8.297
		s2.165,5.771,3.247,8.657s2.164,5.411,3.246,7.936C420.586,556.308,421.669,558.832,422.39,560.275z M406.157,537.91
		c-0.722,1.804-1.442,3.607-2.164,5.411s-1.443,3.607-2.164,5.411h8.296c-0.721-1.804-1.442-3.607-1.803-5.411
		C407.601,541.518,406.879,539.714,406.157,537.91z"/>
	<path fill="#937450" d="M437.901,531.418c-1.443,0-2.525,0.36-3.247,1.082s-1.442,1.804-1.442,2.886s0.36,2.164,1.082,2.886
		s1.442,1.442,2.524,1.804c1.083,0.722,2.165,1.082,3.247,1.804c1.082,0.721,2.164,1.082,3.246,1.804
		c1.082,0.721,1.804,1.803,2.525,2.886c0.722,1.082,1.082,2.524,1.082,4.328c0,1.443-0.36,2.886-0.722,3.968
		c-0.721,1.083-1.442,2.165-2.524,3.247c-1.083,0.721-2.165,1.442-3.607,2.164c-1.443,0.36-3.247,0.722-5.05,0.722
		c-1.804,0-3.247,0-4.329-0.722c-1.082-0.36-2.164-0.722-2.886-1.443c0.36-1.082,0.722-2.164,0.722-2.885
		c0.36-0.722,0.36-1.804,0.722-2.887h0.721c0,0.722,0.361,1.443,0.722,1.804c0.36,0.722,0.722,1.083,1.082,1.443
		c0.722,0.36,1.082,0.722,1.804,1.082s1.443,0.36,2.525,0.36c1.804,0,3.246-0.36,3.968-1.442s1.442-2.164,1.442-3.247
		c0-1.082-0.36-2.164-1.082-2.886c-0.721-0.721-1.442-1.442-2.524-1.803c-1.083-0.722-2.165-1.083-3.247-1.804
		c-1.082-0.722-2.164-1.082-3.246-1.804s-1.804-1.804-2.525-2.886s-1.082-2.525-1.082-4.329c0-1.442,0.36-2.886,0.722-3.968
		c0.722-1.082,1.442-2.164,2.164-2.886c1.082-0.722,2.164-1.442,3.246-1.804c1.083-0.36,2.525-0.722,3.969-0.722
		c1.804,0,2.886,0.361,4.328,0.722c1.082,0.361,2.164,1.082,3.247,1.804c-0.361,0.722-0.361,1.442-0.722,2.164
		c-0.361,0.722-0.361,1.443-0.722,2.525h-0.722C442.59,532.86,440.787,531.418,437.901,531.418z"/>
	<path fill="#937450" d="M463.151,531.418c-1.442,0-2.525,0.36-3.246,1.082c-0.722,0.722-1.443,1.804-1.443,2.886
		s0.361,2.164,1.082,2.886c0.722,0.722,1.443,1.442,2.525,1.804c1.082,0.722,2.164,1.082,3.246,1.804
		c1.083,0.721,2.165,1.082,3.247,1.804c1.082,0.721,1.804,1.803,2.524,2.886c0.722,1.082,1.083,2.524,1.083,4.328
		c0,1.443-0.361,2.886-0.722,3.968c-0.722,1.083-1.443,2.165-2.525,3.247c-1.082,0.721-2.524,1.442-3.607,2.164
		c-1.442,0.36-3.246,0.722-5.05,0.722s-3.246,0-4.328-0.722c-1.083-0.36-2.165-0.722-2.887-1.443
		c0.361-1.082,0.722-2.164,0.722-2.885c0.361-0.722,0.361-1.804,0.722-2.887h0.722c0,0.722,0.36,1.443,0.722,1.804
		c0.36,0.722,0.721,1.083,1.082,1.443c0.721,0.36,1.082,0.722,1.804,1.082c0.721,0.36,1.442,0.36,2.524,0.36
		c1.804,0,3.247-0.36,3.968-1.442c0.722-1.082,1.443-2.164,1.443-3.247c0-1.082-0.36-2.164-1.082-2.886
		c-0.722-0.721-1.443-1.442-2.525-1.803c-1.082-0.722-2.164-1.083-3.246-1.804c-1.082-0.722-2.165-1.082-3.247-1.804
		s-1.804-1.804-2.524-2.886c-0.722-1.082-1.083-2.525-1.083-4.329c0-1.442,0.361-2.886,0.722-3.968
		c0.722-1.082,1.443-2.164,2.165-2.886c1.082-0.722,2.164-1.442,3.246-1.804c1.082-0.36,2.525-0.722,3.968-0.722
		c1.804,0,2.886,0.361,4.329,0.722c1.442,0.36,2.164,1.082,3.246,1.804c-0.36,0.722-0.36,1.442-0.722,2.164
		c-0.36,0.722-0.36,1.443-0.721,2.525h-0.722C467.841,532.86,465.677,531.418,463.151,531.418z"/>
	<path fill="#937450" d="M479.384,538.632c0.722-1.804,2.164-3.607,3.607-5.05c1.442-1.443,3.246-2.525,5.411-3.607
		c2.164-0.722,4.689-1.082,7.214-1.082c2.525,0,4.689,0.36,6.854,1.082c2.165,0.722,3.969,1.804,5.411,2.886
		c1.443,1.443,2.886,2.886,3.607,5.05c0.722,2.165,1.442,4.329,1.442,7.215c0,2.164-0.36,4.329-1.442,6.493
		c-0.722,1.804-2.164,3.607-3.607,5.05c-1.442,1.443-3.246,2.525-5.411,3.607c-2.164,0.722-4.328,1.082-6.854,1.082
		c-2.524,0-4.689-0.36-6.854-0.722c-2.164-0.36-3.968-1.442-5.411-2.886c-1.442-1.442-2.886-2.886-3.606-5.05
		c-1.083-2.164-1.443-4.329-1.443-7.215C477.941,542.6,478.302,540.436,479.384,538.632z M504.273,538.632
		c-0.36-1.442-1.082-2.886-2.164-3.968s-1.804-1.804-3.246-2.525c-1.083-0.721-2.525-0.721-3.969-0.721
		c-1.442,0-2.886,0.36-3.968,1.082s-2.164,1.804-3.246,2.886c-0.722,1.082-1.443,2.886-1.804,4.328
		c-0.36,1.804-0.722,3.607-0.722,5.411c0,2.525,0.361,4.329,0.722,6.133c0.722,1.803,1.082,2.886,2.164,3.968
		c0.722,1.082,1.804,1.804,2.886,2.164s2.525,0.722,3.607,0.722c1.443,0,2.525-0.361,3.968-0.722
		c1.082-0.722,2.165-1.442,3.247-2.525c1.082-1.082,1.804-2.524,2.164-4.328c0.722-1.804,0.722-3.968,0.722-6.493
		C505.355,541.879,504.995,540.075,504.273,538.632z"/>
	<path fill="#937450" d="M545.035,557.029c0,0.721-0.36,1.442-0.36,1.803c-2.525,1.083-5.411,1.804-9.379,1.804
		c-2.525,0-5.05-0.36-6.854-1.082c-2.165-0.722-3.969-1.804-5.411-3.246c-1.443-1.443-2.525-2.886-3.246-4.689
		c-0.722-1.804-1.083-3.968-1.083-6.133c0-3.246,0.361-5.771,1.443-7.936s2.164-3.968,3.968-5.411
		c1.804-1.442,3.607-2.164,5.771-2.886c2.164-0.721,4.329-1.082,6.854-1.082c0.722,0,1.804,0,2.525,0s1.804,0.361,2.525,0.361
		c0.721,0.36,1.442,0.36,2.164,0.721c0.722,0.361,1.442,0.722,1.804,0.722c-0.361,0.722-0.722,1.443-0.722,2.164
		c0,0.722-0.36,1.443-0.36,2.165h-0.722c-1.082-1.443-2.525-2.525-3.607-3.247c-1.082-0.721-2.525-1.082-4.328-1.082
		c-1.083,0-2.525,0.361-3.607,0.722c-1.082,0.722-2.164,1.442-3.247,2.525c-1.082,1.082-1.804,2.524-2.524,4.328
		c-0.722,1.804-1.082,3.968-1.082,6.132c0,2.525,0.36,4.329,1.082,5.772c0.721,1.804,1.442,2.886,2.524,3.968
		c1.083,1.082,2.165,1.804,3.607,2.164c1.443,0.361,2.525,0.722,3.968,0.722c0.722,0,1.443,0,2.165-0.361
		c0.721,0,1.442-0.36,2.164-0.721c0.722-0.361,1.442-0.722,2.164-1.082c0.722-0.361,1.082-0.722,1.804-1.443l0.722,0.36
		C545.396,555.946,545.035,556.668,545.035,557.029z"/>
	<path fill="#937450" d="M553.332,535.024c0-1.803,0-3.968-0.361-5.771c0.722,0,1.082,0,1.804,0s1.082,0,2.165,0
		c0.721,0,1.442,0,2.164,0s1.082,0,1.804,0c0,1.804-0.361,3.969-0.361,5.771c0,1.804,0,3.969,0,6.854v6.132c0,2.525,0,4.689,0,6.854
		c0,1.804,0,3.968,0.361,5.771c-0.722,0-1.082,0-1.804,0s-1.082,0-2.164,0c-0.722,0-1.443,0-2.165,0s-1.082,0-1.804,0
		c0-1.804,0.361-3.606,0.361-5.771c0-1.804,0-3.968,0-6.854v-6.132C553.692,539.354,553.332,537.189,553.332,535.024z"/>
	<path fill="#937450" d="M596.258,560.275c-0.722,0-1.443,0-2.164,0c-0.722,0-1.443,0-1.804,0c-0.722,0-1.082,0-1.804,0
		s-1.443,0-1.804,0c-0.36-1.443-1.082-2.886-1.443-4.689c-0.721-1.442-1.082-2.886-1.804-4.689c-1.082,0-1.803,0-2.885,0
		c-1.083,0-1.804,0-2.887,0c-0.721,0-1.442,0-2.164,0s-1.442,0-2.525,0c-0.721,1.443-1.082,2.886-1.803,4.689
		c-0.722,1.443-1.083,2.886-1.443,4.689c-0.36,0-0.722,0-1.082,0s-0.722,0-1.082,0c-0.361,0-0.722,0-1.082,0
		c-0.361,0-0.722,0-1.082,0c0.36-0.722,0.721-1.804,1.442-3.246c0.722-1.443,1.082-2.886,2.164-4.689
		c0.722-1.804,1.443-3.607,2.165-5.771c0.721-2.165,1.803-3.969,2.524-6.133s1.804-3.968,2.525-6.132
		c0.722-2.165,1.442-3.968,2.164-5.411c0.361,0,0.722,0,0.722,0c0.36,0,0.722,0,0.722,0c0.36,0,0.721,0,0.721,0
		c0.361,0,0.722,0,0.722,0c1.082,2.525,2.164,5.411,3.247,8.297c1.082,2.886,2.164,5.771,3.246,8.657s2.164,5.411,3.246,7.936
		C594.454,556.308,595.176,558.832,596.258,560.275z M580.025,537.91c-0.722,1.804-1.443,3.607-2.164,5.411
		c-0.722,1.804-1.443,3.607-2.165,5.411h8.297c-0.722-1.804-1.442-3.607-1.804-5.411
		C581.468,541.518,580.747,539.714,580.025,537.91z"/>
	<path fill="#937450" d="M605.637,534.304c0-0.722,0-1.083,0-1.443c-0.361,0-1.082,0-1.804,0s-1.443,0-2.165,0
		c-0.721,0-1.442,0-2.164,0s-1.442,0-2.164,0.361c0-0.361,0-0.722,0-1.083c0-0.36,0-0.721,0-1.082c0-0.36,0-0.721,0-1.082
		c0-0.36,0-0.722,0-1.082c1.082,0,1.804,0,2.886,0s1.804,0,2.525,0c0.721,0,1.804,0,2.886,0s2.164,0,3.606,0
		c1.443,0,2.525,0,3.607,0s1.804,0,2.886,0c0.722,0,1.804,0,2.525,0s1.804,0,2.525,0c0,0.36,0,0.722,0,1.082
		c0,0.361,0,0.722,0,1.082c0,0.361,0,0.722,0,1.082c0,0.361,0,0.722,0,1.083c-0.722,0-1.083,0-2.165-0.361c-0.722,0-1.442,0-2.164,0
		s-1.443,0-2.164,0c-0.722,0-1.083,0-1.804,0c0,0,0,0.361,0,0.722s0,0.722,0,1.082v2.525v11.182c0,2.525,0,4.689,0,6.854
		c0,1.804,0,3.968,0.36,5.771c-0.722,0-1.082,0-1.804,0c-0.721,0-1.082,0-2.164,0c-0.722,0-1.443,0-2.164,0
		c-0.722,0-1.082,0-1.804,0c0-1.804,0.36-3.607,0.36-5.771c0-1.804,0-3.969,0-6.854v-11.903
		C605.637,535.746,605.637,535.024,605.637,534.304z"/>
	<path fill="#937450" d="M626.919,535.024c0-1.803,0-3.968-0.36-5.771c1.442,0,2.886,0,3.968,0c1.442,0,2.524,0,3.968,0
		c2.164,0,4.329,0,5.771,0c1.804,0,2.886,0,3.607,0c0,0.361,0,1.083,0,1.804c0,0.361,0,0.722,0,1.082c0,0.361,0,0.722,0,1.083
		c-0.722,0-1.804,0-2.886,0s-2.164,0-2.886,0c-1.082,0-1.804,0-2.525,0s-1.442,0-1.804,0c0,1.803,0,3.246-0.36,5.05
		c0,1.804,0,3.246,0,5.05c1.804,0,3.607,0,5.411,0c1.442,0,3.246,0,5.05-0.36c0,0.721,0,1.082,0,1.082c0,0.36,0,0.722,0,0.722
		c0,0.36,0,0.36,0,0.721c0,0.361,0,0.722,0,1.083c-3.607-0.361-6.854-0.361-10.461-0.361c0,1.082,0,1.804,0,2.886s0,1.804,0,2.886
		c0,1.804,0,3.968,0,5.771c1.804,0,3.607,0,5.05,0c1.443,0,3.607-0.36,5.411-0.36c0,0.36,0,0.722,0,1.082s0,0.722,0,1.082
		c0,0.361,0,0.722,0,1.082c0,0.361,0,0.361,0,0.722c-0.722,0-1.804,0-2.886,0s-2.886,0-5.05,0c-1.804,0-3.247,0-4.329,0
		s-2.164,0-2.886,0s-1.082,0-1.443,0c-0.36,0-0.721,0-0.721,0c0-1.804,0-3.607,0.36-5.771c0-1.804,0-3.968,0-6.854V542.6
		C627.279,539.354,627.279,537.189,626.919,535.024z"/>
	<path fill="#937450" d="M660.827,531.418c-1.443,0-2.525,0.36-3.247,1.082c-0.721,0.722-1.442,1.804-1.442,2.886
		s0.36,2.164,1.082,2.886s1.442,1.442,2.525,1.804c1.082,0.722,2.164,1.082,3.246,1.804c1.082,0.721,2.164,1.082,3.246,1.804
		c1.083,0.721,1.804,1.803,2.525,2.886c0.722,1.082,1.082,2.524,1.082,4.328c0,1.443-0.36,2.886-0.722,3.968
		c-0.721,1.083-1.442,2.165-2.524,3.247c-1.082,0.721-2.525,1.442-3.607,2.164c-1.443,0.36-3.246,0.722-5.05,0.722
		s-3.247,0-4.329-0.722c-1.082-0.36-2.164-0.722-2.886-1.443c0.361-1.082,0.722-2.164,0.722-2.885
		c0.36-0.722,0.36-1.804,0.722-2.887h0.721c0,0.722,0.361,1.443,0.722,1.804c0.36,0.722,0.722,1.083,1.082,1.443
		c0.722,0.36,1.082,0.722,1.804,1.082s1.443,0.36,2.525,0.36c1.804,0,3.246-0.36,3.968-1.442s1.442-2.164,1.442-3.247
		c0-1.082-0.36-2.164-1.082-2.886c-0.721-0.721-1.442-1.442-2.524-1.803c-1.083-0.722-2.165-1.083-3.247-1.804
		c-1.082-0.722-2.164-1.082-3.246-1.804s-1.804-1.804-2.525-2.886c-0.721-1.082-1.082-2.525-1.082-4.329
		c0-1.442,0.361-2.886,0.722-3.968c0.722-1.082,1.442-2.164,2.164-2.886c1.082-0.722,2.164-1.442,3.247-1.804
		c1.082-0.36,2.524-0.722,3.968-0.722c1.804,0,2.886,0.361,4.328,0.722c1.443,0.36,2.165,1.082,3.247,1.804
		c-0.361,0.722-0.361,1.442-0.722,2.164s-0.36,1.443-0.722,2.525h-0.722C665.155,532.86,663.352,531.418,660.827,531.418z"/>
</g>
<g>
	<path fill="#67281F" d="M144.602,461.168h-25.908h-1.295v-1.295v-1.869v-1.52v-8.694v-1.52v-5.829h0.647h0.647h25.908h1.296v1.296
		v4.533v1.52v8.694v1.52v1.868v1.296H144.602L144.602,461.168z M118.694,455.896l8.269-3.758l-8.269-3.759V455.896z
		 M144.602,441.737h-25.908v5.122l12.954,5.889l12.954-5.889V441.737z M144.602,448.379l-8.268,3.759l8.268,3.758V448.379z
		 M134.663,452.896l-3.015,1.371l-3.015-1.37l-9.939,4.518v2.458h25.908v-2.458L134.663,452.896z"/>
</g>
</svg>
