<?xml version="1.0" encoding="utf-8"?>
<!-- Generator: Adobe Illustrator 15.1.0, SVG Export Plug-In . SVG Version: 6.00 Build 0)  -->
<!DOCTYPE svg PUBLIC "-//W3C//DTD SVG 1.1//EN" "http://www.w3.org/Graphics/SVG/1.1/DTD/svg11.dtd">
<svg version="1.1" id="Layer_1" xmlns="http://www.w3.org/2000/svg" xmlns:xlink="http://www.w3.org/1999/xlink" x="0px" y="0px"
	 width="649.696px" height="485.12px" viewBox="28.5 54.087 649.696 485.12" enable-background="new 28.5 54.087 649.696 485.12"
	 xml:space="preserve">
<g>
	<g>
		<path fill="#67281F" d="M201.468,310.207c-36.72,0-93.6-52.56-93.6-122.4c0-65.52,36.72-108,93.6-108s93.6,42.48,93.6,108
			c0,31.68-12.24,62.64-33.84,87.841C242.508,296.526,219.468,310.207,201.468,310.207z M201.468,94.207c-48.96,0-79.2,36-79.2,93.6
			c0,62.64,51.84,108,79.2,108c27.359,0,79.2-45.36,79.2-108C280.668,130.207,250.428,94.207,201.468,94.207z"/>
	</g>
	<g>
		<path fill="#67281F" d="M329.628,454.207H79.068c-10.8,0-20.88-5.04-28.08-14.4c-8.64-11.52-11.52-26.64-7.2-41.76l0.72-1.44
			l11.52-22.32c0.72-1.439,1.44-2.879,1.44-4.319c0-0.72,0-0.72,0.72-1.44c5.04-11.52,15.84-20.879,29.52-23.76l67.68-14.4
			c8.64-2.159,14.399-10.799,12.96-20.159l-3.6-20.88l14.399-2.16l3.601,20.88c2.88,16.56-7.2,31.681-23.04,36l-6.48,2.16
			l-63.36,12.96c-8.64,2.16-15.84,7.199-18.72,15.119v0.721c-0.72,2.16-1.44,4.32-2.88,5.76l-11.52,21.601
			c-2.88,10.08-0.72,20.88,5.04,28.08c4.32,5.76,10.08,9.359,16.56,9.359h250.56c6.48,0,12.24-2.88,16.561-9.359
			c5.76-7.921,7.92-18,5.04-28.08l-14.4-25.2c-2.88-9.36-10.8-15.84-20.88-18l-70.56-13.68l-2.881-1.44
			c-12.96-5.04-20.88-18-18.72-31.681l4.32-25.199l14.399,2.16l-4.319,25.199c-1.44,6.48,2.88,13.681,9.359,15.84l2.881,0.721
			l69.119,12.96c15.12,2.88,27.36,13.68,31.681,27.36l14.4,25.92c4.32,14.399,1.439,30.239-7.201,41.76
			C350.508,449.167,340.428,454.207,329.628,454.207z"/>
	</g>
	<g>
		<path fill="#67281F" stroke="#413D6B" stroke-width="2" stroke-miterlimit="10" d="M201.468,447.007"/>
	</g>
	<g>
		<path fill="#67281F" d="M203.628,364.207c-13.681,0-26.641-6.48-42.48-19.44l8.64-11.52c25.921,20.88,38.881,23.039,71.28-1.44
			l8.641,11.521C231.708,357.007,217.308,364.207,203.628,364.207z"/>
	</g>
	<g>
		<path fill="#67281F" d="M309.468,123.007c-11.521-46.08-69.84-62.64-113.04-62.64s-78.48,30.24-95.76,75.6
			c-21.6,56.88,0,138.24,0,138.24l43.2-1.44l-14.399-84.96l21.6-21.6c20.88,14.4,52.561,7.2,77.04-2.16
			c5.04,17.28,8.641,30.24,9.36,45.36c1.439,20.16,0,43.2,0,43.2s16.56-20.16,25.2-45.36l-3.601,69.119l50.4-16.56
			C309.468,259.807,318.108,159.727,309.468,123.007z"/>
	</g>
</g>
<g>
	<path fill="#67281F" d="M484.489,298.887c-36.72,0-93.601-52.56-93.601-122.4c0-65.52,36.721-108,93.601-108s93.6,42.48,93.6,108
		c0,31.68-12.239,62.64-33.84,87.84C525.529,285.207,502.489,298.887,484.489,298.887z M484.489,82.887c-48.96,0-79.2,36-79.2,93.6
		c0,62.64,51.84,108,79.2,108s79.2-45.36,79.2-108C563.689,118.887,533.449,82.887,484.489,82.887z"/>
</g>
<g>
	<path fill="#67281F" d="M636.409,464.487h-303.84c-13.68,0-26.64-6.48-34.56-18s-10.08-25.2-5.76-38.88l15.12-46.08
		c3.6-10.8,12.24-20.16,22.32-25.2l94.32-43.92l5.76,12.96l-93.6,43.92c-7.2,3.601-12.24,9.36-15.12,16.561l-15.12,46.08
		c-2.88,8.64-1.44,18,3.6,25.92c5.76,7.199,13.68,11.52,23.04,11.52h303.84c9.36,0,18-4.32,23.04-11.52
		c5.76-7.2,7.2-16.561,3.6-25.92l-15.12-46.08c-2.159-7.2-7.92-13.681-15.119-16.561l-94.32-43.92l5.76-12.96l94.32,43.92
		c10.8,5.04,18.72,14.4,22.32,25.2l15.119,46.08c4.32,12.96,2.16,27.36-5.76,38.88C663.049,458.007,650.81,464.487,636.409,464.487z
		"/>
</g>
<g>
	<path fill="#67281F" d="M405.289,133.287c0,0-2.88,10.8,28.8,36c31.681,25.2,72,21.6,72,21.6s-35.279-23.04-36-28.8
		c-0.72-5.76,72,21.6,72,21.6s36-3.6,36,0c0,3.6,0-57.6,0-57.6s-12.96-30.24-21.6-43.2s-41.04-15.84-50.4-21.6
		c-9.359-5.76-50.399-7.2-50.399-7.2l-21.601,7.2l-28.8,28.8l-21.6,43.2l7.199,28.8v21.6L405.289,133.287z"/>
</g>
<g>
	<path fill="#67281F" d="M573.049,218.967l-5.04-13.68c5.761-2.16,15.12-7.2,18-11.52c1.44-2.88,2.881-8.64,0.721-12.96
		c-2.16-5.76-8.641-10.08-18-12.24l3.6-13.68c17.28,4.32,24.48,13.68,27.36,20.88c4.319,10.08,2.16,20.16-1.44,25.92
		C593.209,211.767,576.649,218.247,573.049,218.967z"/>
</g>
<g>
	<path fill="#67281F" d="M395.93,218.967c-2.881-1.44-19.44-7.2-25.2-17.28c-3.601-5.76-5.761-15.84-1.44-25.92
		c2.881-7.2,10.08-15.84,27.36-20.88l3.6,13.68c-9.36,2.16-15.12,6.48-18,12.24c-2.159,5.04-1.44,10.08,0.72,12.96
		c2.16,4.32,11.521,9.36,18,11.52L395.93,218.967z"/>
</g>
<g>
	<path fill="#67281F" d="M484.489,445.768l-43.92-43.92l23.76-88.561h39.601l24.479,88.561L484.489,445.768z M456.409,397.527
		l28.08,28.08l28.08-28.08l-19.44-69.84h-18L456.409,397.527z"/>
</g>
<text transform="matrix(1 0 0 1 72 684)" font-family="'HelveticaNeue-Bold'" font-size="36">Created by BraveBros.</text>
<text transform="matrix(1 0 0 1 72 720)" font-family="'HelveticaNeue-Bold'" font-size="36">from the Noun Project</text>
<path fill="#67281F" d="M413.236,444.202c-1.789-50.835-42.303-90.873-93.362-91.857c-51.585-0.992-92.464,43.34-93.429,93.425
	c-0.997,51.58,43.341,92.455,93.429,93.421c51.038,0.984,91.576-42.413,93.359-91.842c0.05-0.51,0.079-1.03,0.069-1.579
	C413.312,445.226,413.283,444.706,413.236,444.202z"/>
<g id="XMLID_1_">
	<g>
		<path fill="#FFFFFF" d="M339.95,390.24c2.38,2.43,3.58,5.33,3.58,8.72s-1.21,6.28-3.63,8.67s-5.33,3.58-8.72,3.58
			c-3.32,0-6.18-1.19-8.57-3.58c-2.38-2.39-3.57-5.28-3.57-8.67c0-3.38,1.17-6.29,3.52-8.72c2.36-2.41,5.23-3.63,8.62-3.63
			C334.63,386.61,337.56,387.83,339.95,390.24z"/>
		<path fill="#FFFFFF" d="M336.37,425.11l-17.13,59.37c-0.9,3.39-1.34,5.64-1.34,6.739c0,0.561,0.23,1.11,0.72,1.66
			c0.48,0.561,1,0.83,1.55,0.83c0.97,0,1.91-0.41,2.81-1.24c2.56-2.08,5.57-5.81,9.03-11.21l2.91,1.66
			c-8.45,14.67-17.41,22-26.89,22c-3.6,0-6.47-1.02-8.61-3.06c-2.15-2.04-3.22-4.62-3.22-7.74c0-2.07,0.48-4.7,1.46-7.88
			l11.62-39.95c1.11-3.81,1.66-6.68,1.66-8.62c0-1.25-0.54-2.35-1.61-3.32c-1.07-0.97-2.51-1.449-4.3-1.449
			c-0.9,0-1.91,0.029-3.02,0.1l1.04-3.32l28.34-4.569H336.37z"/>
	</g>
	<g>
	</g>
</g>
<polygon fill="#67281F" points="464.329,313.287 503.93,313.287 528.409,401.848 484.489,445.768 442.807,393.509 "/>
<g>
	<g>
		<path fill="#FFFFFF" d="M514.705,392.168c-7-23.667-14-47.333-21-71c-0.456-1.542-2.869-0.885-2.41,0.665
			c7,23.667,14,47.333,21,71C512.751,394.375,515.164,393.718,514.705,392.168L514.705,392.168z"/>
	</g>
</g>
<g>
	<g>
		<path fill="#FFFFFF" d="M122.384,175.384c6.278-6.037,12.557-12.074,18.835-18.111c2.38-2.288,4.759-4.576,7.139-6.865
			c-0.801,0.771-2.168-0.158-0.591,0.661c0.876,0.455,1.78,0.855,2.689,1.242c25.056,10.66,55.273,6.02,80.376-1.605
			c1.538-0.467,0.882-2.88-0.665-2.41c-19.955,6.061-41.141,9.485-61.936,6.301c-6.693-1.025-14.2-2.633-20.101-6.175
			c-0.488-0.293-1.112-0.191-1.515,0.195c-8.667,8.333-17.333,16.667-26,25C119.452,174.735,121.222,176.501,122.384,175.384
			L122.384,175.384z"/>
	</g>
</g>
<g>
	<g>
		<path fill="#FFFFFF" d="M563.481,167.116c-3.666,0-7.332,0-10.998,0c-2.99,0-9.713,0.793-11.668,0.038
			c-6.062-2.34-12.124-4.681-18.187-7.021c-16.266-6.28-32.531-12.559-48.797-18.838c-1.506-0.582-2.151,1.836-0.664,2.41
			c16.543,6.387,33.086,12.773,49.629,19.16c5.791,2.235,11.581,4.471,17.371,6.706c2.927,1.13,8.248,0.045,11.33,0.045
			c3.995,0,7.989,0,11.983,0C565.094,169.616,565.094,167.116,563.481,167.116L563.481,167.116z"/>
	</g>
</g>
</svg>
