<?xml version="1.0" encoding="utf-8"?>
<!-- Generator: Adobe Illustrator 15.1.0, SVG Export Plug-In . SVG Version: 6.00 Build 0)  -->
<!DOCTYPE svg PUBLIC "-//W3C//DTD SVG 1.1//EN" "http://www.w3.org/Graphics/SVG/1.1/DTD/svg11.dtd">
<svg version="1.1" id="Layer_1" xmlns="http://www.w3.org/2000/svg" xmlns:xlink="http://www.w3.org/1999/xlink" x="0px" y="0px"
	 width="22.491px" height="22.491px" viewBox="302.055 218.449 22.491 22.491"
	 enable-background="new 302.055 218.449 22.491 22.491" xml:space="preserve">
<text transform="matrix(1 0 0 1 72 684)" font-family="'HelveticaNeue-Bold'" font-size="36">Created by BraveBros.</text>
<text transform="matrix(1 0 0 1 72 720)" font-family="'HelveticaNeue-Bold'" font-size="36">from the Noun Project</text>
<g>
	<circle opacity="0.63" fill="#FFFFFF" enable-background="new    " cx="249.449" cy="-40.084" r="19.926"/>
	<path fill="#FFFFFF" d="M240.277-47.656c0,0,3.512,4.379,9.051,4.483c0,0-0.291-2.263,0.797-3.797
		c1.086-1.539,2.172-1.547,2.172-1.547s2.989-0.491,3.927,1.384c0,0,1.979-0.73,2.813-0.938c0,0-0.209,1.185-1.354,2.207
		c0,0,1.562-0.435,1.875-0.435c0,0-0.416,1.145-1.666,1.875c0,0-0.106,5.524-3.232,8.962c0,0-6.566,6.982-15.32,2.188
		c0,0,3.856,0.106,5.939-1.874c0,0-3.438-0.628-3.854-2.92h1.353c0,0-3.439-1.772-2.813-4.377l1.564,0.313
		C241.528-42.132,238.402-43.799,240.277-47.656z"/>
</g>
<g>
	<path opacity="0.63" fill="#67281F" enable-background="new    " d="M324.545,229.695c0,6.21-5.035,11.245-11.246,11.245
		s-11.245-5.035-11.245-11.245c0-6.21,5.035-11.246,11.245-11.246S324.545,223.484,324.545,229.695z"/>
	<path fill="#67281F" d="M313.765,234.416v-4.397h1.778v-1.482h-1.778c0,0-0.465-1.734,0.889-1.819c0,0,0.255-0.042,1.017,0v-1.694
		c0,0-2.265-0.338-2.953,0.763c0,0-0.774,1.059-0.52,2.581h-1.27v1.61h1.354v4.44H313.765L313.765,234.416z"/>
</g>
<g>
	<circle opacity="0.63" fill="#FFFFFF" enable-background="new    " cx="358.565" cy="-40.438" r="19.926"/>
	<g>
		<path fill="none" stroke="#FFFFFF" stroke-width="0.5" stroke-miterlimit="10" d="M351.465-48.251v3.564h0.713v-3.921h0.479v3.921
			h0.887v-4.218h0.42v4.218h0.475v-4.218h9.803c0,0,2.258,0.654,2.674,2.672v11.407c0,0-0.238,2.316-2.258,2.852H353.01
			c0,0-2.258,0.178-2.791-2.613v-11.466C350.217-46.053,350.28-47.893,351.465-48.251z"/>
		<path fill="none" stroke="#FFFFFF" stroke-width="0.5" stroke-miterlimit="10" d="M362.752-46.767c0,0-0.119-0.711,0.771-0.711
			h1.545c0,0,0.234-0.167,0.416,0.391v1.807c0,0,0.002,0.712-0.596,0.712h-1.664c0,0-0.604,0.059-0.479-0.712L362.752-46.767z"/>
		
			<line fill="none" stroke="#FFFFFF" stroke-width="0.5" stroke-miterlimit="10" x1="350.217" y1="-43.201" x2="366.911" y2="-43.201"/>
		<circle fill="none" stroke="#FFFFFF" stroke-width="0.5" stroke-miterlimit="10" cx="358.565" cy="-40.315" r="4.129"/>
		<circle fill="#FFFFFF" cx="358.504" cy="-40.315" r="2.346"/>
	</g>
</g>
<g>
	<circle opacity="0.63" fill="#FFFFFF" enable-background="new    " cx="413.122" cy="-40.047" r="19.926"/>
	<path fill="#FFFFFF" d="M409.727-31.887c0,0-7.941-6.162-3.402-12.971c0,0,2.744-3.803,7.193-3.803c0,0,1.607-0.031,3.756,1.223
		c1.436,0.84,3.062,1.77,3.662,4.452c0.596,2.661,0.332,2.591,0.174,4.069c0,0-1.43,10.3-10.188,7.029l1.438-3.764
		c0,0,2.475,3.132,5.555-1.668c0,0,3.219-7.044-4.049-8.528c0,0-5.24-1.106-6.395,5.089c0,0,0.875,5.137,2.254,3.439l0.188-0.478
		c0,0-2.064-4.839,1.195-6.016c0,0,4.967-1.738,5.426,2.42c0,0,0.275,5.048-2.574,4.852c0,0-1.865,0.245-0.842-2.997
		c0,0,1.062-2.469-0.758-2.845c0,0-2.018,0.549-1.529,3.325c0,0,0.645-0.454-0.186,2.318
		C410.647-36.739,409.635-32.975,409.727-31.887z"/>
</g>
</svg>
