<?xml version="1.0" encoding="utf-8"?>
<!-- Generator: Adobe Illustrator 15.1.0, SVG Export Plug-In . SVG Version: 6.00 Build 0)  -->
<!DOCTYPE svg PUBLIC "-//W3C//DTD SVG 1.1//EN" "http://www.w3.org/Graphics/SVG/1.1/DTD/svg11.dtd">
<svg version="1.1" id="Layer_1" xmlns="http://www.w3.org/2000/svg" xmlns:xlink="http://www.w3.org/1999/xlink" x="0px" y="0px"
	 width="34.951px" height="24.854px" viewBox="6 13.485 34.951 24.854" enable-background="new 6 13.485 34.951 24.854"
	 xml:space="preserve">
<g>
	<path fill="none" stroke="#67281F" stroke-miterlimit="10" d="M322.47,361.157l12.266,45.09h0.721l13.348-45.09h-8.297v-7.215
		h24.168v7.575h-7.215l-19.117,58.799h-12.625l-11.184-40.041l-14.068,40.041h-12.625l-18.035-58.799h-8.657v-7.575h32.465v7.575
		h-9.379l12.986,45.092h0.721l12.985-37.877l-2.164-7.215h-8.656v-7.575h32.465v7.575L322.47,361.157L322.47,361.157z"/>
	<path fill="none" stroke="#67281F" stroke-miterlimit="10" d="M371.167,412.019h10.461v-50.86h-10.461v-7.575h33.547v7.575h-10.461
		v50.86h10.461v7.575h-33.547V412.019z"/>
	<path fill="none" stroke="#67281F" stroke-miterlimit="10" d="M446.197,353.943v7.575h-10.461v50.862h12.986
		c7.936,0,9.379-1.804,14.43-18.036h6.133v25.611h-56.273v-7.575h10.102v-50.862h-10.102v-7.575H446.197L446.197,353.943z"/>
	<path fill="none" stroke="#67281F" stroke-miterlimit="10" d="M510.044,353.943v7.575h-10.461v50.862h12.986
		c7.936,0,9.379-1.804,14.43-18.036h6.133v25.611h-56.271v-7.575h10.1v-50.862h-10.1v-7.575H510.044L510.044,353.943z"/>
	<path fill="none" stroke="#67281F" stroke-miterlimit="10" d="M540.707,412.019h10.461v-50.86h-10.461v-7.575h33.547v7.575h-10.461
		v50.86h10.461v7.575h-33.547V412.019z"/>
	<path fill="none" stroke="#67281F" stroke-miterlimit="10" d="M624.394,397.59h-23.086l-5.412,14.79h8.299v7.575h-24.168v-7.575
		h7.213l22.006-58.798h12.984l21.281,58.798h8.658v7.575h-32.465v-7.575h9.74L624.394,397.59z M603.833,390.736h18.395
		l-8.656-25.973h-0.359L603.833,390.736z"/>
	<path fill="none" stroke="#67281F" stroke-miterlimit="10" d="M658.302,412.019h9.379v-50.86h-9.379v-7.575h29.219l15.512,45.09
		h0.359l15.512-45.09H747.4v7.575h-10.1v50.86h10.1v7.575h-31.383v-7.575h8.656V362.6h-1.082l-20.201,56.994h-5.77L676.699,362.6
		h-1.082v49.419h9.018v7.575h-26.332V412.019L658.302,412.019z"/>
	<path fill="none" stroke="#67281F" stroke-miterlimit="10" d="M296.498,499.313h11.184v-51.943h-3.607
		c-8.656,0-10.461,2.886-14.789,18.396h-6.133v-24.528h61.684v24.528h-6.133c-4.328-15.512-6.131-18.396-14.789-18.396h-3.607
		v51.943h11.184v7.575H296.5v-7.575H296.498z"/>
	<path fill="none" stroke="#67281F" stroke-miterlimit="10" d="M352.41,499.313h10.1v-50.86h-10.1v-7.575h32.465v7.575h-9.379
		v20.561h28.137v-20.561h-9.379v-7.575h32.465v7.575h-10.1v50.86h10.1v7.575h-32.465v-7.575h9.379v-23.086h-28.137v23.086h9.379
		v7.575H352.41V499.313L352.41,499.313z"/>
	<path fill="none" stroke="#67281F" stroke-miterlimit="10" d="M432.13,474.063c0-20.2,14.789-34.63,32.824-34.63
		c18.758,0,32.826,14.068,32.826,34.27s-14.789,34.629-32.826,34.629C446.558,508.693,432.13,494.624,432.13,474.063z
		 M483.351,474.063c0-17.676-6.49-27.055-18.395-27.055s-18.396,9.379-18.396,27.055s6.492,27.055,18.396,27.055
		S483.351,491.739,483.351,474.063z"/>
	<path fill="none" stroke="#67281F" stroke-miterlimit="10" d="M503.552,499.313h9.379v-50.86h-9.379v-7.575h29.219l15.512,45.09
		h0.359l15.512-45.09h28.498v7.575H582.55v50.86h10.102v7.575h-31.385v-7.575h8.658v-49.419h-1.082l-20.201,56.994h-5.77
		l-20.922-56.994h-1.082v49.419h9.018v7.575h-26.334V499.313L503.552,499.313z"/>
	<path fill="none" stroke="#67281F" stroke-miterlimit="10" d="M643.152,484.885h-23.086l-5.412,14.789h8.297v7.575h-24.168v-7.575
		h7.215l22.004-58.797h12.986l21.281,58.797h8.656v7.575H638.46v-7.575h9.74L643.152,484.885z M622.228,478.031h18.398
		l-8.658-25.974h-0.359L622.228,478.031z"/>
	<path fill="none" stroke="#67281F" stroke-miterlimit="10" d="M677.419,484.163h7.215c6.133,12.265,11.184,17.313,20.922,17.313
		c7.576,0,11.904-3.968,11.904-10.1c0-7.215-7.576-9.019-16.955-11.544c-10.461-2.886-22.004-6.492-22.004-20.562
		c0-10.82,9.02-19.84,21.645-19.84c6.133,0,12.986,2.525,16.594,7.215l2.164-6.854h7.574v23.087h-7.215
		c-5.41-12.265-10.82-16.231-18.758-16.231c-6.492,0-10.461,3.968-10.461,9.379c0,7.936,8.297,9.738,17.676,12.264
		c10.461,2.525,21.645,5.771,21.645,19.479c0,11.903-9.738,20.923-23.086,20.923c-7.574,0-14.789-2.887-18.758-7.575l-2.164,7.214
		h-7.574L677.419,484.163L677.419,484.163z"/>
</g>
<g>
	<path fill="#937450" d="M356.378,559.915c-1.805,0.721-3.607,0.721-5.412,0.721c-1.441,0-2.523-0.359-3.605-0.721
		s-1.805-1.083-2.887-1.804c-0.721-0.723-1.082-1.443-1.803-2.525c-0.361-0.722-0.723-1.804-0.723-2.525
		c0-1.082,0.359-2.164,0.723-3.246c0.359-1.081,1.082-1.804,1.803-2.524c0.723-0.721,1.443-1.442,2.525-2.164
		s2.164-1.082,3.246-1.804c-1.082-1.442-1.803-2.524-2.525-3.607c-0.721-1.082-1.082-2.164-1.082-3.605
		c0-1.443,0.361-2.525,0.723-3.247c0.359-1.082,1.082-1.805,1.803-2.164c0.723-0.723,1.805-1.082,2.525-1.082
		c1.082-0.361,2.164-0.361,2.887-0.361c1.082,0,2.164,0,2.885,0.361c0.723,0.359,1.805,0.722,2.525,1.082
		c0.721,0.359,1.082,1.082,1.441,1.804c0.361,0.722,0.723,1.442,0.723,2.523c0,1.443-0.359,2.887-1.441,3.97
		c-1.084,1.082-2.525,2.523-4.33,3.605c1.082,1.443,2.525,2.887,3.607,4.329s2.523,2.886,3.607,4.329
		c0.721-1.083,1.803-2.165,2.523-3.606c0.723-1.443,1.805-3.247,2.887-5.052c0.361,0.361,0.721,1.083,1.082,1.443
		s0.721,0.722,1.082,1.082c-1.082,1.442-2.164,2.886-2.887,3.968c-1.082,1.082-2.164,2.525-3.246,3.607
		c0.359,0.722,1.082,1.082,1.443,1.804c0.721,0.722,1.082,1.082,1.803,1.804c0.723,0.723,1.084,1.082,1.805,1.805
		c0.721,0.721,1.082,1.082,1.803,1.441c-1.082,0-2.164,0-2.885,0c-0.723,0-1.805,0-2.525,0s-1.082,0-1.803,0
		c-0.723,0-1.082,0-1.805,0l-2.164-2.886C359.986,558.832,358.181,559.554,356.378,559.915z M348.802,553.782
		c0.361,0.722,0.723,1.442,1.443,2.164s1.082,1.083,2.164,1.442c0.723,0.36,1.805,0.723,2.887,0.723s1.803,0,2.523-0.361
		c0.723-0.36,1.443-0.721,2.166-1.442c-1.443-1.804-2.887-3.247-3.969-5.05c-1.443-1.804-2.525-3.247-3.969-5.051
		c-1.082,0.722-1.803,1.804-2.523,2.525c-0.723,0.721-1.082,1.804-1.082,2.886C348.443,552.34,348.443,553.061,348.802,553.782z
		 M353.853,537.91c0.723,1.083,1.082,2.165,1.805,3.247c0.359-0.361,0.721-0.723,1.082-1.082c0.359-0.361,0.721-1.083,1.082-1.443
		c0.359-0.722,0.721-1.082,1.082-1.804c0.359-0.721,0.359-1.442,0.359-2.164c0-1.082-0.359-1.804-1.082-2.525
		c-0.721-0.721-1.441-1.082-2.164-1.082c-0.721,0-1.803,0.361-2.164,0.723c-0.721,0.722-1.082,1.441-1.082,2.524
		C353.132,535.746,353.492,536.828,353.853,537.91z"/>
	<path fill="#937450" d="M422.39,560.276c-0.721,0-1.441,0-2.164,0s-1.441,0-1.805,0c-0.359,0-1.082,0-1.803,0
		c-0.723,0-1.443,0-1.805,0c-0.359-1.443-1.082-2.887-1.441-4.689c-0.723-1.442-1.082-2.886-1.805-4.689c-1.082,0-1.805,0-2.887,0
		s-1.803,0-2.885,0c-0.723,0-1.443,0-2.164,0c-0.723,0-1.443,0-2.166,0c-0.721,1.443-1.082,2.887-1.803,4.689
		c-0.721,1.443-1.082,2.886-1.443,4.689c-0.359,0-0.721,0-1.082,0c-0.359,0-0.721,0-1.082,0c-0.359,0-0.721,0-1.082,0
		c-0.359,0-0.721,0-1.082,0c0.361-0.723,0.723-1.805,1.443-3.246c0.721-1.443,1.082-2.887,2.164-4.689
		c0.721-1.804,1.443-3.606,2.164-5.771c0.721-2.165,1.803-3.97,2.525-6.134c0.721-2.163,1.803-3.968,2.523-6.132
		c0.723-2.165,1.443-3.968,2.164-5.411c0.361,0,0.723,0,0.723,0c0.359,0,0.721,0,0.721,0c0.361,0,0.723,0,0.723,0
		c0.361,0,0.721,0,0.721,0c1.082,2.525,2.164,5.411,3.246,8.298c1.082,2.886,2.166,5.771,3.248,8.656
		c1.082,2.887,2.164,5.411,3.246,7.937C420.585,556.308,421.669,558.832,422.39,560.276z M406.158,537.91
		c-0.723,1.804-1.443,3.606-2.164,5.411c-0.723,1.804-1.443,3.606-2.164,5.411h8.295c-0.721-1.805-1.441-3.607-1.803-5.411
		C407.601,541.518,406.878,539.714,406.158,537.91z"/>
	<path fill="#937450" d="M437.902,531.418c-1.443,0-2.525,0.36-3.248,1.082s-1.441,1.804-1.441,2.886s0.359,2.164,1.082,2.886
		c0.721,0.723,1.441,1.442,2.523,1.805c1.084,0.722,2.166,1.082,3.248,1.804c1.082,0.721,2.162,1.082,3.244,1.804
		s1.805,1.804,2.525,2.887c0.723,1.082,1.082,2.523,1.082,4.328c0,1.442-0.359,2.886-0.721,3.968
		c-0.723,1.083-1.443,2.165-2.525,3.247c-1.082,0.721-2.164,1.441-3.605,2.164c-1.443,0.359-3.248,0.722-5.051,0.722
		c-1.805,0-3.248,0-4.33-0.722c-1.08-0.36-2.162-0.723-2.885-1.443c0.359-1.082,0.723-2.164,0.723-2.885
		c0.359-0.723,0.359-1.805,0.721-2.887h0.721c0,0.722,0.361,1.442,0.723,1.804c0.359,0.722,0.723,1.083,1.082,1.442
		c0.723,0.36,1.082,0.723,1.805,1.082c0.721,0.36,1.441,0.36,2.523,0.36c1.805,0,3.246-0.36,3.969-1.442s1.441-2.164,1.441-3.247
		c0-1.081-0.359-2.163-1.082-2.886c-0.721-0.721-1.441-1.441-2.523-1.803c-1.082-0.722-2.164-1.083-3.246-1.804
		c-1.082-0.723-2.164-1.082-3.246-1.805c-1.082-0.722-1.805-1.804-2.525-2.886s-1.082-2.525-1.082-4.329
		c0-1.441,0.359-2.886,0.723-3.968c0.721-1.082,1.441-2.164,2.162-2.886c1.082-0.723,2.164-1.442,3.246-1.805
		c1.084-0.359,2.525-0.722,3.971-0.722c1.803,0,2.885,0.361,4.326,0.722c1.082,0.361,2.164,1.082,3.248,1.805
		c-0.361,0.722-0.361,1.441-0.723,2.164c-0.361,0.722-0.361,1.442-0.721,2.524h-0.723
		C442.589,532.861,440.787,531.418,437.902,531.418z"/>
	<path fill="#937450" d="M463.152,531.418c-1.443,0-2.525,0.36-3.246,1.082c-0.723,0.722-1.443,1.804-1.443,2.886
		s0.361,2.164,1.082,2.886c0.721,0.723,1.443,1.442,2.525,1.805c1.082,0.722,2.164,1.082,3.246,1.804
		c1.082,0.721,2.164,1.082,3.246,1.804s1.805,1.804,2.523,2.887c0.723,1.082,1.084,2.523,1.084,4.328
		c0,1.442-0.361,2.886-0.723,3.968c-0.723,1.083-1.443,2.165-2.525,3.247c-1.082,0.721-2.523,1.441-3.605,2.164
		c-1.443,0.359-3.246,0.722-5.051,0.722s-3.246,0-4.328-0.722c-1.082-0.36-2.164-0.723-2.887-1.443
		c0.361-1.082,0.723-2.164,0.723-2.885c0.359-0.723,0.359-1.805,0.721-2.887h0.723c0,0.722,0.359,1.442,0.721,1.804
		c0.361,0.722,0.723,1.083,1.082,1.442c0.723,0.36,1.082,0.723,1.805,1.082c0.721,0.36,1.441,0.36,2.523,0.36
		c1.805,0,3.248-0.36,3.969-1.442c0.723-1.082,1.443-2.164,1.443-3.247c0-1.081-0.361-2.163-1.082-2.886
		c-0.723-0.721-1.443-1.441-2.525-1.803c-1.082-0.722-2.164-1.083-3.246-1.804c-1.082-0.723-2.164-1.082-3.246-1.805
		c-1.082-0.722-1.805-1.804-2.525-2.886s-1.082-2.525-1.082-4.329c0-1.441,0.361-2.886,0.721-3.968
		c0.723-1.082,1.443-2.164,2.166-2.886c1.082-0.723,2.164-1.442,3.246-1.805c1.082-0.359,2.525-0.722,3.969-0.722
		c1.803,0,2.885,0.361,4.328,0.722c1.441,0.36,2.164,1.082,3.246,1.805c-0.359,0.722-0.359,1.441-0.723,2.164
		c-0.359,0.722-0.359,1.442-0.721,2.524h-0.723C467.841,532.861,465.677,531.418,463.152,531.418z"/>
	<path fill="#937450" d="M479.384,538.632c0.721-1.804,2.164-3.606,3.607-5.05c1.441-1.443,3.246-2.525,5.41-3.607
		c2.164-0.722,4.689-1.082,7.215-1.082c2.523,0,4.688,0.36,6.854,1.082c2.164,0.723,3.969,1.805,5.41,2.887
		c1.443,1.442,2.887,2.886,3.607,5.05c0.723,2.165,1.441,4.329,1.441,7.215c0,2.164-0.359,4.329-1.441,6.493
		c-0.723,1.804-2.164,3.606-3.607,5.05c-1.441,1.443-3.246,2.525-5.41,3.607c-2.164,0.722-4.328,1.082-6.854,1.082
		s-4.689-0.36-6.855-0.723c-2.164-0.359-3.967-1.441-5.41-2.886c-1.441-1.442-2.887-2.886-3.605-5.05
		c-1.084-2.164-1.443-4.329-1.443-7.215C477.941,542.6,478.302,540.436,479.384,538.632z M504.273,538.632
		c-0.359-1.441-1.082-2.886-2.164-3.968s-1.805-1.804-3.246-2.525c-1.082-0.721-2.525-0.721-3.969-0.721
		c-1.441,0-2.887,0.36-3.969,1.082s-2.164,1.804-3.246,2.886c-0.721,1.082-1.441,2.886-1.803,4.328
		c-0.361,1.804-0.723,3.607-0.723,5.411c0,2.525,0.361,4.329,0.723,6.133c0.721,1.803,1.082,2.886,2.164,3.968
		c0.721,1.082,1.803,1.805,2.885,2.164c1.082,0.36,2.525,0.723,3.607,0.723c1.443,0,2.525-0.361,3.969-0.723
		c1.082-0.722,2.164-1.441,3.246-2.524c1.082-1.082,1.805-2.524,2.164-4.328c0.723-1.805,0.723-3.968,0.723-6.493
		C505.355,541.879,504.996,540.075,504.273,538.632z"/>
	<path fill="#937450" d="M545.035,557.03c0,0.721-0.359,1.441-0.359,1.803c-2.525,1.083-5.412,1.804-9.379,1.804
		c-2.525,0-5.051-0.359-6.854-1.082c-2.166-0.722-3.971-1.804-5.412-3.246c-1.443-1.442-2.525-2.886-3.246-4.688
		c-0.723-1.804-1.082-3.968-1.082-6.133c0-3.246,0.359-5.771,1.441-7.937s2.164-3.968,3.969-5.411
		c1.805-1.441,3.607-2.164,5.771-2.886c2.164-0.721,4.328-1.082,6.854-1.082c0.723,0,1.805,0,2.525,0s1.805,0.361,2.525,0.361
		c0.721,0.36,1.441,0.36,2.164,0.721c0.721,0.361,1.441,0.722,1.803,0.722c-0.361,0.723-0.721,1.443-0.721,2.164
		c0,0.723-0.361,1.443-0.361,2.165h-0.721c-1.082-1.442-2.525-2.524-3.607-3.247c-1.082-0.721-2.525-1.082-4.328-1.082
		c-1.084,0-2.525,0.361-3.607,0.723c-1.082,0.722-2.164,1.441-3.246,2.524c-1.082,1.082-1.805,2.524-2.525,4.328
		c-0.721,1.805-1.082,3.969-1.082,6.132c0,2.525,0.361,4.329,1.082,5.772c0.723,1.804,1.443,2.886,2.525,3.968
		s2.164,1.805,3.607,2.164c1.441,0.361,2.523,0.723,3.967,0.723c0.723,0,1.443,0,2.166-0.361c0.721,0,1.441-0.36,2.164-0.721
		c0.721-0.361,1.441-0.723,2.164-1.082c0.721-0.361,1.082-0.723,1.803-1.443l0.723,0.36
		C545.396,555.947,545.035,556.668,545.035,557.03z"/>
	<path fill="#937450" d="M553.332,535.025c0-1.804,0-3.969-0.361-5.771c0.723,0,1.082,0,1.805,0s1.082,0,2.164,0
		c0.723,0,1.443,0,2.164,0c0.723,0,1.082,0,1.805,0c0,1.804-0.361,3.969-0.361,5.771c0,1.804,0,3.969,0,6.854v6.132
		c0,2.525,0,4.689,0,6.854c0,1.804,0,3.968,0.361,5.771c-0.723,0-1.082,0-1.805,0c-0.721,0-1.082,0-2.164,0
		c-0.721,0-1.441,0-2.164,0s-1.082,0-1.805,0c0-1.804,0.361-3.605,0.361-5.771c0-1.805,0-3.968,0-6.854v-6.132
		C553.693,539.354,553.332,537.19,553.332,535.025z"/>
	<path fill="#937450" d="M596.257,560.276c-0.721,0-1.441,0-2.164,0c-0.721,0-1.441,0-1.803,0c-0.723,0-1.082,0-1.805,0
		s-1.443,0-1.805,0c-0.359-1.443-1.082-2.887-1.441-4.689c-0.723-1.442-1.082-2.886-1.805-4.689c-1.082,0-1.803,0-2.885,0
		c-1.084,0-1.805,0-2.887,0c-0.723,0-1.443,0-2.164,0c-0.723,0-1.443,0-2.525,0c-0.721,1.443-1.082,2.887-1.803,4.689
		c-0.723,1.443-1.084,2.886-1.443,4.689c-0.359,0-0.723,0-1.082,0s-0.723,0-1.082,0c-0.361,0-0.723,0-1.082,0
		c-0.361,0-0.723,0-1.082,0c0.359-0.723,0.721-1.805,1.441-3.246c0.723-1.443,1.082-2.887,2.164-4.689
		c0.723-1.804,1.443-3.606,2.166-5.771c0.721-2.165,1.803-3.97,2.523-6.134c0.721-2.163,1.805-3.968,2.525-6.132
		c0.723-2.165,1.441-3.968,2.164-5.411c0.361,0,0.723,0,0.723,0c0.359,0,0.721,0,0.721,0c0.359,0,0.721,0,0.721,0
		c0.361,0,0.723,0,0.723,0c1.082,2.525,2.164,5.411,3.246,8.298c1.082,2.886,2.164,5.771,3.246,8.656
		c1.082,2.887,2.164,5.411,3.246,7.937C594.455,556.308,595.175,558.832,596.257,560.276z M580.025,537.91
		c-0.723,1.804-1.443,3.606-2.164,5.411c-0.723,1.804-1.443,3.606-2.164,5.411h8.297c-0.723-1.805-1.443-3.607-1.805-5.411
		C581.468,541.518,580.748,539.714,580.025,537.91z"/>
	<path fill="#937450" d="M605.636,534.304c0-0.722,0-1.083,0-1.442c-0.359,0-1.082,0-1.803,0c-0.723,0-1.443,0-2.166,0
		c-0.721,0-1.441,0-2.164,0c-0.721,0-1.441,0-2.164,0.36c0-0.36,0-0.722,0-1.083c0-0.359,0-0.721,0-1.082c0-0.359,0-0.721,0-1.082
		c0-0.359,0-0.722,0-1.081c1.082,0,1.805,0,2.887,0s1.805,0,2.525,0s1.803,0,2.885,0s2.164,0,3.607,0c1.441,0,2.523,0,3.605,0
		s1.805,0,2.887,0c0.723,0,1.805,0,2.525,0s1.805,0,2.525,0c0,0.359,0,0.722,0,1.081c0,0.361,0,0.723,0,1.082
		c0,0.361,0,0.723,0,1.082c0,0.361,0,0.723,0,1.083c-0.723,0-1.084,0-2.166-0.36c-0.721,0-1.441,0-2.164,0c-0.721,0-1.443,0-2.164,0
		s-1.082,0-1.803,0c0,0,0,0.36,0,0.722s0,0.722,0,1.082v2.525v11.182c0,2.525,0,4.688,0,6.854c0,1.805,0,3.969,0.359,5.771
		c-0.723,0-1.082,0-1.805,0c-0.721,0-1.082,0-2.164,0c-0.721,0-1.441,0-2.164,0c-0.721,0-1.082,0-1.803,0
		c0-1.804,0.359-3.607,0.359-5.771c0-1.804,0-3.969,0-6.854v-11.903C605.636,535.746,605.636,535.025,605.636,534.304z"/>
	<path fill="#937450" d="M626.919,535.025c0-1.804,0-3.969-0.361-5.771c1.443,0,2.887,0,3.969,0c1.441,0,2.523,0,3.969,0
		c2.164,0,4.328,0,5.77,0c1.805,0,2.887,0,3.607,0c0,0.361,0,1.083,0,1.804c0,0.361,0,0.723,0,1.082c0,0.361,0,0.723,0,1.083
		c-0.721,0-1.803,0-2.885,0s-2.164,0-2.887,0c-1.082,0-1.805,0-2.525,0s-1.441,0-1.803,0c0,1.804,0,3.246-0.361,5.05
		c0,1.805,0,3.246,0,5.051c1.805,0,3.607,0,5.412,0c1.441,0,3.246,0,5.049-0.36c0,0.721,0,1.082,0,1.082c0,0.36,0,0.722,0,0.722
		c0,0.36,0,0.36,0,0.722c0,0.36,0,0.722,0,1.083c-3.607-0.361-6.854-0.361-10.461-0.361c0,1.082,0,1.804,0,2.886s0,1.804,0,2.886
		c0,1.805,0,3.969,0,5.771c1.805,0,3.607,0,5.051,0s3.607-0.36,5.41-0.36c0,0.36,0,0.723,0,1.082c0,0.36,0,0.723,0,1.082
		c0,0.361,0,0.722,0,1.082c0,0.361,0,0.361,0,0.722c-0.721,0-1.803,0-2.885,0s-2.887,0-5.051,0c-1.805,0-3.246,0-4.328,0
		s-2.164,0-2.887,0s-1.082,0-1.443,0c-0.359,0-0.721,0-0.721,0c0-1.804,0-3.606,0.359-5.771c0-1.804,0-3.968,0-6.854V542.6
		C627.279,539.354,627.279,537.19,626.919,535.025z"/>
	<path fill="#937450" d="M660.828,531.418c-1.443,0-2.525,0.36-3.248,1.082c-0.721,0.722-1.441,1.804-1.441,2.886
		s0.359,2.164,1.082,2.886c0.723,0.723,1.441,1.442,2.525,1.805c1.082,0.722,2.164,1.082,3.246,1.804
		c1.082,0.721,2.164,1.082,3.246,1.804s1.803,1.804,2.523,2.887c0.723,1.082,1.082,2.523,1.082,4.328
		c0,1.442-0.359,2.886-0.721,3.968c-0.721,1.083-1.443,2.165-2.525,3.247c-1.082,0.721-2.523,1.441-3.605,2.164
		c-1.443,0.359-3.246,0.722-5.051,0.722s-3.246,0-4.328-0.722c-1.082-0.36-2.164-0.723-2.887-1.443
		c0.361-1.082,0.723-2.164,0.723-2.885c0.359-0.723,0.359-1.805,0.721-2.887h0.721c0,0.722,0.361,1.442,0.723,1.804
		c0.359,0.722,0.723,1.083,1.082,1.442c0.723,0.36,1.082,0.723,1.805,1.082c0.721,0.36,1.443,0.36,2.525,0.36
		c1.803,0,3.244-0.36,3.967-1.442s1.441-2.164,1.441-3.247c0-1.081-0.359-2.163-1.082-2.886c-0.721-0.721-1.441-1.441-2.523-1.803
		c-1.082-0.722-2.164-1.083-3.246-1.804c-1.082-0.723-2.164-1.082-3.246-1.805c-1.082-0.722-1.805-1.804-2.525-2.886
		s-1.082-2.525-1.082-4.329c0-1.441,0.361-2.886,0.723-3.968c0.721-1.082,1.441-2.164,2.164-2.886
		c1.082-0.723,2.164-1.442,3.246-1.805c1.082-0.359,2.523-0.722,3.969-0.722c1.803,0,2.885,0.361,4.328,0.722
		c1.441,0.36,2.164,1.082,3.246,1.805c-0.361,0.722-0.361,1.441-0.723,2.164c-0.359,0.722-0.359,1.442-0.721,2.524h-0.723
		C665.156,532.861,663.351,531.418,660.828,531.418z"/>
</g>
<path fill="#67281F" d="M23.528,33.126c0.057,0.057,0.12,0.108,0.188,0.154c0.03,0.021,0.064,0.034,0.097,0.052
	c0.039,0.021,0.075,0.045,0.117,0.062c0.041,0.017,0.083,0.026,0.126,0.039c0.035,0.01,0.068,0.024,0.105,0.031
	c0.079,0.016,0.16,0.024,0.241,0.024c0.082,0,0.163-0.009,0.243-0.024c0.037-0.007,0.071-0.021,0.107-0.031
	c0.041-0.013,0.083-0.022,0.124-0.039c0.042-0.017,0.08-0.041,0.12-0.063c0.031-0.017,0.063-0.03,0.093-0.05
	c0.067-0.047,0.132-0.098,0.189-0.155l8.756-8.757c0.483-0.482,0.483-1.267,0-1.75c-0.483-0.484-1.268-0.484-1.751,0l-6.643,6.643
	V14.914c0-0.684-0.556-1.238-1.239-1.238c-0.683,0-1.238,0.554-1.238,1.238v14.348l-6.643-6.643c-0.482-0.484-1.268-0.484-1.751,0
	c-0.483,0.483-0.483,1.268,0,1.75L23.528,33.126z"/>
<circle fill="#67281F" cx="19.59" cy="36.948" r="1.188"/>
<circle fill="#67281F" cx="24.442" cy="36.961" r="1.188"/>
<circle fill="#67281F" cx="29.215" cy="36.948" r="1.188"/>
</svg>
