<?xml version="1.0" encoding="utf-8"?>
<!-- Generator: Adobe Illustrator 15.1.0, SVG Export Plug-In . SVG Version: 6.00 Build 0)  -->
<!DOCTYPE svg PUBLIC "-//W3C//DTD SVG 1.1//EN" "http://www.w3.org/Graphics/SVG/1.1/DTD/svg11.dtd">
<svg version="1.1" id="Layer_1" xmlns="http://www.w3.org/2000/svg" xmlns:xlink="http://www.w3.org/1999/xlink" x="0px" y="0px"
	 width="74.98px" height="76.014px" viewBox="497.885 348.245 74.98 76.014" enable-background="new 497.885 348.245 74.98 76.014"
	 xml:space="preserve">
<path fill="#67281F" d="M558.95,369.481l-37.391-10.357c-0.826-0.23-1.704,0.258-1.938,1.099c-0.232,0.837,0.259,1.705,1.097,1.938
	l37.392,10.357c0.14,0.036,0.282,0.055,0.421,0.055c0.69,0,1.323-0.455,1.517-1.152C560.28,370.581,559.789,369.716,558.95,369.481z
	"/>
<path fill="#67281F" d="M555.776,378.553l-37.39-10.355c-0.829-0.229-1.705,0.256-1.938,1.098c-0.234,0.838,0.259,1.705,1.096,1.94
	l37.39,10.355c0.142,0.039,0.282,0.055,0.424,0.055c0.688,0,1.322-0.455,1.517-1.152
	C557.107,379.652,556.613,378.785,555.776,378.553z"/>
<path fill="#67281F" d="M572.396,384.46h-7.929l5.764-19.447c0.119-0.405,0.071-0.842-0.133-1.213
	c-0.206-0.368-0.55-0.64-0.958-0.755l-53.224-14.743c-0.82-0.227-1.684,0.244-1.929,1.067l-8.672,29.056
	c-0.007,0.019,0,0.04-0.004,0.058h-6.957c-0.219,0-0.395,0.178-0.395,0.394v44.986c0,0.219,0.176,0.396,0.395,0.396h74.041
	c0.218,0,0.395-0.177,0.395-0.396v-39.01C572.79,384.637,572.613,384.46,572.396,384.46z M518.812,388.009h-11.413v6.88
	c0,0.872-0.704,1.576-1.576,1.576c-0.87,0-1.573-0.704-1.573-1.576v-8.457c0-0.869,0.703-1.573,1.573-1.573h12.989
	c0.87,0,1.573,0.704,1.573,1.573C520.386,387.307,519.683,388.009,518.812,388.009z M526.896,378.553
	c-0.067-0.044-0.145-0.069-0.226-0.069h-18.084l7.976-26.73l50.189,13.901l-5.556,18.75c-0.005,0.019,0,0.035-0.005,0.056h-25.693
	L526.896,378.553z M552.212,418.684c-7.454,0-13.496-5.843-13.496-13.053c0-7.207,6.042-13.048,13.496-13.048
	s13.496,5.841,13.496,13.048C565.708,412.841,559.666,418.684,552.212,418.684z"/>
<g>
	<path fill="#67281F" d="M557.316,414.03h-1.22c-0.834,0-1.512-0.679-1.512-1.512v-0.042c-0.938,0.149-1.899,0.171-2.853,0.061
		c-0.01,0.823-0.685,1.493-1.512,1.493h-1.22c-0.834,0-1.512-0.679-1.512-1.512v-1.484c-0.834-0.55-1.547-1.233-2.085-1.998h-1.21
		c-1.057,0-1.916-0.858-1.916-1.914v-3.327c0-1.057,0.859-1.915,1.916-1.915h1.21c0.62-0.882,1.466-1.646,2.473-2.239v-2.604h0.569
		c1.071,0,2.05,0.552,2.604,1.445c0.621-0.115,1.254-0.171,1.888-0.171c4.797,0,8.699,3.206,8.699,7.147
		c0,2.007-1.019,3.907-2.809,5.261v1.797C558.828,413.352,558.15,414.03,557.316,414.03z M555.725,411.073v1.445
		c0,0.204,0.168,0.372,0.372,0.372h1.22c0.206,0,0.373-0.168,0.373-0.372v-2.385l0.243-0.17c1.63-1.144,2.566-2.787,2.566-4.506
		c0-3.313-3.392-6.008-7.562-6.008c-0.697,0-1.394,0.075-2.068,0.229l-0.465,0.104l-0.186-0.437
		c-0.227-0.532-0.671-0.923-1.204-1.087v2.056l-0.299,0.161c-1.071,0.575-1.945,1.362-2.527,2.277l-0.168,0.265h-1.827
		c-0.429,0-0.777,0.348-0.777,0.778v3.325c0,0.428,0.349,0.775,0.777,0.775h1.827l0.168,0.265c0.514,0.808,1.263,1.523,2.165,2.073
		l0.273,0.166v2.117c0,0.204,0.168,0.372,0.373,0.372h1.22c0.206,0,0.373-0.168,0.373-0.372v-1.321l0.671,0.12
		c1.248,0.226,2.54,0.193,3.764-0.086L555.725,411.073z"/>
	<circle fill="#67281F" cx="548.559" cy="402.871" r="0.838"/>
	<path fill="#67281F" d="M557.742,402.879c-1.817-1.898-4.641-1.772-4.67-1.77l-0.045-0.854c0.132-0.004,3.246-0.145,5.332,2.032
		L557.742,402.879z"/>
	<path fill="#67281F" d="M563.179,405.804c-0.066,0-0.136-0.005-0.205-0.014c-0.545-0.079-0.958-0.578-0.941-1.138
		c0.004-0.153,0.053-0.476,0.337-0.793c-0.619-0.235-1.211-0.079-1.219-0.076l-0.226-0.824c0.054-0.016,1.225-0.322,2.268,0.368
		c0.332-0.129,0.756-0.226,1.302-0.271l0.071,0.852c-0.251,0.021-0.472,0.056-0.665,0.099c0.306,0.431,0.387,0.872,0.214,1.248
		C563.953,405.604,563.604,405.804,563.179,405.804z M563.085,404.352c-0.131,0.108-0.196,0.221-0.199,0.326
		c-0.004,0.141,0.104,0.251,0.209,0.265c0.137,0.021,0.228-0.009,0.244-0.046C563.369,404.83,563.334,404.625,563.085,404.352z"/>
</g>
</svg>
