<?xml version="1.0" encoding="utf-8"?>
<!-- Generator: Adobe Illustrator 15.1.0, SVG Export Plug-In . SVG Version: 6.00 Build 0)  -->
<!DOCTYPE svg PUBLIC "-//W3C//DTD SVG 1.1//EN" "http://www.w3.org/Graphics/SVG/1.1/DTD/svg11.dtd">
<svg version="1.1" id="Layer_1" xmlns="http://www.w3.org/2000/svg" xmlns:xlink="http://www.w3.org/1999/xlink" x="0px" y="0px"
	 width="28.5px" height="36.275px" viewBox="0 0 28.5 36.275" enable-background="new 0 0 28.5 36.275" xml:space="preserve">
<g>
	<g>
		<path fill="#67281F" d="M14.25,34.482l-0.346-0.196c-7.1-3.845-10.354-6.212-12.08-8.578C0,23.142,0,20.628,0,16.831V5.64
			l14.25-3.846L28.5,5.64v11.191c0,3.797,0,6.311-1.823,8.876c-1.727,2.415-4.98,4.733-12.08,8.578L14.25,34.482z M1.481,6.773
			v10.059c0,3.648,0,5.868,1.527,7.988c1.529,2.119,4.684,4.387,11.242,7.986c6.559-3.601,9.713-5.817,11.242-7.986
			c1.527-2.17,1.527-4.34,1.527-7.988V6.773L14.25,3.322L1.481,6.773z"/>
	</g>
	<g>
		<path fill="#67281F" d="M15.434,9.386l1.528,5.572h0.099l1.627-5.572h-1.035V8.498h2.957v0.938h-0.887l-2.317,7.25h-1.578
			l-1.382-4.933l-1.725,4.933h-1.578l-2.22-7.3H7.838V8.448h3.994v0.889h-1.184l1.578,5.572h0.098l1.627-4.687l-0.247-0.887h-1.035
			V8.448h3.994v0.889C16.716,9.386,15.434,9.386,15.434,9.386z"/>
		<path fill="#67281F" d="M12.082,25.707h1.38v-6.411h-0.443c-1.035,0-1.281,0.346-1.824,2.27h-0.739v-3.058h7.593v3.058h-0.74
			c-0.541-1.924-0.789-2.27-1.824-2.27H15.04v6.411h1.38v0.938h-4.338V25.707z"/>
	</g>
	<g>
		<path fill="#937450" d="M8.432,22.946c-0.394,0.394-0.541,0.937-0.492,1.331c0.394,0.049,0.887-0.148,1.281-0.591
			c0.396-0.396,0.543-0.938,0.493-1.331C9.321,22.304,8.828,22.501,8.432,22.946z"/>
	</g>
	<g>
		<path fill="#937450" d="M6.115,23.142c-0.542-0.098-1.084,0.052-1.38,0.299c0.197,0.345,0.641,0.641,1.184,0.737
			c0.542,0.1,1.084-0.05,1.38-0.296C7.102,23.538,6.658,23.241,6.115,23.142z"/>
	</g>
	<g>
		<path fill="#937450" d="M7.545,21.366c-0.345,0.445-0.492,0.938-0.395,1.333c0.395,0,0.888-0.248,1.231-0.643
			c0.347-0.444,0.494-0.938,0.396-1.331C8.382,20.726,7.94,20.974,7.545,21.366z"/>
	</g>
	<g>
		<path fill="#937450" d="M5.524,21.17c-0.543-0.099-1.084,0-1.381,0.248c0.148,0.345,0.592,0.688,1.135,0.787
			c0.541,0.099,1.084,0,1.38-0.246C6.51,21.613,6.065,21.269,5.524,21.17z"/>
	</g>
	<g>
		<path fill="#937450" d="M6.854,19.542c-0.395,0.396-0.641,0.888-0.592,1.281c0.396,0.051,0.889-0.098,1.282-0.492
			c0.396-0.394,0.642-0.887,0.591-1.281C7.743,19.001,7.249,19.149,6.854,19.542z"/>
	</g>
	<g>
		<path fill="#937450" d="M5.178,18.903c-0.541-0.198-1.084-0.198-1.381,0.048c0.1,0.395,0.493,0.741,1.036,0.987
			c0.542,0.196,1.085,0.196,1.381-0.051C6.065,19.493,5.671,19.099,5.178,18.903z"/>
	</g>
	<g>
		<path fill="#937450" d="M6.608,17.373c-0.394,0.396-0.641,0.888-0.59,1.283c0.394,0.048,0.887-0.102,1.281-0.495
			c0.395-0.393,0.641-0.887,0.592-1.281C7.545,16.782,7.002,16.98,6.608,17.373z"/>
	</g>
	<g>
		<path fill="#937450" d="M4.389,17.325c0.346,0.443,0.84,0.688,1.233,0.641c0.099-0.395-0.049-0.887-0.394-1.332
			c-0.346-0.442-0.84-0.688-1.232-0.641C3.897,16.388,3.996,16.88,4.389,17.325z"/>
	</g>
	<g>
		<path fill="#937450" d="M6.065,15.302c-0.246,0.544-0.246,1.036-0.047,1.384c0.394-0.102,0.787-0.445,1.035-0.986
			c0.246-0.543,0.246-1.035,0.049-1.381C6.707,14.415,6.313,14.81,6.065,15.302z"/>
	</g>
	<g>
		<path fill="#937450" d="M6.805,24.82c-0.541,0.1-1.035,0.344-1.183,0.688c0.296,0.297,0.789,0.444,1.38,0.347
			c0.543-0.101,1.036-0.347,1.184-0.691C7.891,24.919,7.348,24.771,6.805,24.82z"/>
	</g>
	<g>
		<path fill="#937450" d="M19.92,22.946c0.395,0.394,0.542,0.937,0.493,1.331c-0.394,0.049-0.888-0.148-1.281-0.591
			c-0.396-0.396-0.542-0.938-0.493-1.331C19.034,22.304,19.526,22.501,19.92,22.946z"/>
	</g>
	<g>
		<path fill="#937450" d="M22.239,23.142c0.542-0.098,1.084,0.052,1.38,0.299c-0.197,0.345-0.642,0.641-1.185,0.737
			c-0.541,0.1-1.084-0.05-1.379-0.296C21.204,23.538,21.647,23.241,22.239,23.142z"/>
	</g>
	<g>
		<path fill="#937450" d="M20.809,21.366c0.346,0.445,0.492,0.938,0.395,1.333c-0.395,0-0.889-0.248-1.232-0.643
			c-0.346-0.444-0.494-0.938-0.396-1.331C19.92,20.726,20.414,20.974,20.809,21.366z"/>
	</g>
	<g>
		<path fill="#937450" d="M22.831,21.17c0.542-0.099,1.084,0,1.38,0.248c-0.147,0.345-0.592,0.688-1.134,0.787s-1.085,0-1.381-0.246
			C21.844,21.613,22.288,21.269,22.831,21.17z"/>
	</g>
	<g>
		<path fill="#937450" d="M21.499,19.542c0.395,0.396,0.641,0.888,0.591,1.281c-0.396,0.051-0.887-0.098-1.28-0.492
			c-0.396-0.394-0.643-0.887-0.593-1.281C20.612,19.001,21.104,19.149,21.499,19.542z"/>
	</g>
	<g>
		<path fill="#937450" d="M23.176,18.903c0.541-0.198,1.084-0.198,1.379,0.048c-0.099,0.395-0.492,0.741-1.035,0.987
			c-0.541,0.196-1.084,0.196-1.381-0.051C22.288,19.493,22.682,19.099,23.176,18.903z"/>
	</g>
	<g>
		<path fill="#937450" d="M21.746,17.373c0.396,0.396,0.642,0.888,0.592,1.283c-0.394,0.048-0.887-0.102-1.282-0.495
			c-0.395-0.393-0.642-0.887-0.592-1.281C20.809,16.782,21.35,16.98,21.746,17.373z"/>
	</g>
	<g>
		<path fill="#937450" d="M23.964,17.325c-0.346,0.443-0.838,0.688-1.233,0.641c-0.098-0.395,0.051-0.887,0.396-1.332
			c0.347-0.442,0.838-0.688,1.231-0.641C24.457,16.388,24.309,16.88,23.964,17.325z"/>
	</g>
	<g>
		<path fill="#937450" d="M22.288,15.302c0.247,0.544,0.247,1.036,0.049,1.384c-0.395-0.102-0.789-0.445-1.035-0.986
			c-0.246-0.543-0.246-1.035-0.049-1.381C21.647,14.415,22.041,14.81,22.288,15.302z"/>
	</g>
	<g>
		<path fill="#937450" d="M21.547,24.82c0.542,0.1,1.036,0.344,1.184,0.688c-0.297,0.297-0.789,0.444-1.381,0.347
			c-0.541-0.101-1.035-0.347-1.183-0.691C20.463,24.919,21.005,24.771,21.547,24.82z"/>
	</g>
</g>
</svg>
