<?xml version="1.0" encoding="utf-8"?>
<!-- Generator: Adobe Illustrator 15.1.0, SVG Export Plug-In . SVG Version: 6.00 Build 0)  -->
<!DOCTYPE svg PUBLIC "-//W3C//DTD SVG 1.1//EN" "http://www.w3.org/Graphics/SVG/1.1/DTD/svg11.dtd">
<svg version="1.1" id="Layer_1" xmlns="http://www.w3.org/2000/svg" xmlns:xlink="http://www.w3.org/1999/xlink" x="0px" y="0px"
	 width="28.499px" height="36.276px" viewBox="117.399 432.667 28.499 36.276"
	 enable-background="new 117.399 432.667 28.499 36.276" xml:space="preserve">
<g>
	<path fill="#67281F" d="M131.648,468.943l-0.346-0.196c-7.1-3.845-10.354-6.212-12.08-8.578c-1.824-2.565-1.824-5.079-1.824-8.876
		v-11.191l14.25-3.846l14.249,3.846v11.191c0,3.797,0,6.311-1.824,8.876c-1.726,2.415-4.98,4.733-12.08,8.578L131.648,468.943z
		 M118.878,441.234v10.059c0,3.648,0,5.868,1.528,7.988c1.529,2.119,4.684,4.387,11.242,7.987c6.558-3.601,9.713-5.818,11.242-7.987
		c1.528-2.17,1.528-4.34,1.528-7.988v-10.059l-12.77-3.451L118.878,441.234z"/>
</g>
<g>
	<path fill="#67281F" d="M322.47,361.157l12.265,45.09h0.722l13.347-45.09h-8.297v-7.214h24.169v7.575h-7.215l-19.118,58.798
		h-12.625l-11.183-40.04l-14.068,40.04h-12.625l-18.036-58.798h-8.657v-7.575h32.465v7.575h-9.379l12.986,45.091h0.721
		l12.986-37.876l-2.164-7.215h-8.657v-7.575h32.465v7.575L322.47,361.157L322.47,361.157z"/>
	<path fill="#67281F" d="M371.168,412.019h10.461v-50.861h-10.461v-7.575h33.547v7.575h-10.461v50.861h10.461v7.575h-33.547V412.019
		z"/>
	<path fill="#67281F" d="M446.197,353.943v7.575h-10.461v50.862h12.986c7.936,0,9.379-1.804,14.429-18.036h6.133v25.611h-56.272
		v-7.575h10.1v-50.862h-10.1v-7.575H446.197z"/>
	<path fill="#67281F" d="M510.045,353.943v7.575h-10.461v50.862h12.986c7.936,0,9.379-1.804,14.429-18.036h6.133v25.611h-56.272
		v-7.575h10.1v-50.862h-10.1v-7.575H510.045z"/>
	<path fill="#67281F" d="M540.707,412.019h10.461v-50.861h-10.461v-7.575h33.547v7.575h-10.461v50.861h10.461v7.575h-33.547V412.019
		z"/>
	<path fill="#67281F" d="M624.394,397.59h-23.086l-5.411,14.79h8.297v7.575h-24.168v-7.575h7.214l22.005-58.798h12.985
		l21.282,58.798h8.658v7.575h-32.465v-7.575h9.739L624.394,397.59z M603.833,390.736h18.396l-8.657-25.973h-0.36L603.833,390.736z"
		/>
	<path fill="#67281F" d="M658.302,412.019h9.379v-50.861h-9.379v-7.575h29.219l15.511,45.09h0.36l15.512-45.09H747.4v7.575H737.3
		v50.861H747.4v7.575h-31.383v-7.575h8.657V362.6h-1.082l-20.201,56.994h-5.771L676.698,362.6h-1.082v49.419h9.019v7.575h-26.333
		V412.019L658.302,412.019z"/>
	<path fill="#67281F" d="M296.498,499.313h11.183v-51.944h-3.607c-8.657,0-10.461,2.886-14.79,18.397h-6.132v-24.529h61.684v24.529
		h-6.133c-4.328-15.512-6.132-18.397-14.789-18.397h-3.607v51.944h11.183v7.575h-34.99V499.313L296.498,499.313z"/>
	<path fill="#67281F" d="M352.41,499.313h10.1v-50.861h-10.1v-7.575h32.465v7.575h-9.379v20.561h28.137v-20.561h-9.379v-7.575
		h32.465v7.575h-10.101v50.861h10.101v7.575h-32.465v-7.575h9.379v-23.086h-28.137v23.086h9.379v7.575H352.41V499.313
		L352.41,499.313z"/>
	<path fill="#67281F" d="M432.13,474.062c0-20.2,14.789-34.629,32.825-34.629c18.758,0,32.826,14.068,32.826,34.269
		s-14.79,34.629-32.826,34.629C446.559,508.692,432.13,494.624,432.13,474.062z M483.352,474.062
		c0-17.675-6.492-27.054-18.396-27.054s-18.396,9.379-18.396,27.054c0,17.676,6.492,27.055,18.396,27.055
		S483.352,491.738,483.352,474.062z"/>
	<path fill="#67281F" d="M503.553,499.313h9.378v-50.861h-9.378v-7.575h29.218l15.511,45.09h0.361l15.511-45.09h28.497v7.575h-10.1
		v50.861h10.1v7.575h-31.383v-7.575h8.657v-49.419h-1.082l-20.2,56.994h-5.771l-20.922-56.994h-1.082v49.419h9.018v7.575h-26.333
		L503.553,499.313L503.553,499.313z"/>
	<path fill="#67281F" d="M643.151,484.885h-23.086l-5.411,14.789h8.297v7.575h-24.168v-7.575h7.214l22.004-58.797h12.986
		l21.282,58.797h8.657v7.575h-32.465v-7.575h9.739L643.151,484.885z M622.229,478.031h18.397l-8.658-25.973h-0.36L622.229,478.031z"
		/>
	<path fill="#67281F" d="M677.42,484.163h7.215c6.132,12.265,11.182,17.314,20.922,17.314c7.575,0,11.903-3.968,11.903-10.1
		c0-7.215-7.575-9.019-16.954-11.544c-10.461-2.886-22.004-6.492-22.004-20.561c0-10.821,9.019-19.84,21.644-19.84
		c6.132,0,12.986,2.525,16.593,7.215l2.165-6.854h7.575v23.087h-7.215c-5.411-12.265-10.821-16.232-18.758-16.232
		c-6.492,0-10.461,3.968-10.461,9.379c0,7.936,8.297,9.739,17.676,12.264c10.461,2.525,21.644,5.771,21.644,19.479
		c0,11.903-9.739,20.922-23.087,20.922c-7.574,0-14.789-2.886-18.757-7.575l-2.165,7.214h-7.574L677.42,484.163L677.42,484.163z"/>
</g>
<g>
	<path fill="#67281F" d="M132.832,443.848l1.528,5.572h0.098l1.627-5.572h-1.035v-0.888h2.958v0.937h-0.888l-2.317,7.25h-1.578
		l-1.381-4.932l-1.726,4.932h-1.578l-2.219-7.299h-1.085v-0.938h3.994v0.889h-1.184l1.578,5.572h0.098l1.627-4.686l-0.247-0.887
		h-1.035v-0.889h3.994v0.889C134.114,443.848,132.832,443.848,132.832,443.848z"/>
	<path fill="#67281F" d="M129.479,460.169h1.38v-6.411h-0.443c-1.036,0-1.282,0.346-1.824,2.269h-0.74v-3.057h7.593v3.057h-0.74
		c-0.542-1.923-0.789-2.269-1.824-2.269h-0.444v6.411h1.38v0.937h-4.338V460.169z"/>
</g>
<g>
	<path fill="#937450" d="M125.83,457.407c-0.394,0.394-0.542,0.937-0.493,1.331c0.394,0.049,0.887-0.148,1.282-0.591
		c0.395-0.396,0.542-0.938,0.493-1.331C126.718,456.766,126.225,456.963,125.83,457.407z"/>
</g>
<g>
	<path fill="#937450" d="M123.512,457.604c-0.542-0.098-1.084,0.051-1.38,0.298c0.197,0.345,0.641,0.641,1.184,0.738
		c0.542,0.099,1.084-0.05,1.38-0.296C124.499,458,124.055,457.703,123.512,457.604z"/>
</g>
<g>
	<path fill="#937450" d="M124.943,455.828c-0.345,0.445-0.493,0.938-0.395,1.333c0.395,0,0.888-0.248,1.232-0.642
		c0.346-0.445,0.494-0.938,0.395-1.332C125.78,455.188,125.337,455.436,124.943,455.828z"/>
</g>
<g>
	<path fill="#937450" d="M122.921,455.632c-0.542-0.099-1.084,0-1.38,0.248c0.148,0.345,0.591,0.688,1.134,0.787
		c0.542,0.099,1.084,0,1.38-0.246C123.907,456.074,123.463,455.73,122.921,455.632z"/>
</g>
<g>
	<path fill="#937450" d="M124.252,454.004c-0.395,0.396-0.641,0.888-0.592,1.281c0.395,0.051,0.888-0.098,1.282-0.492
		c0.395-0.394,0.641-0.887,0.591-1.281C125.14,453.463,124.646,453.61,124.252,454.004z"/>
</g>
<g>
	<path fill="#937450" d="M122.576,453.364c-0.542-0.198-1.085-0.198-1.381,0.048c0.099,0.395,0.493,0.741,1.036,0.987
		c0.542,0.197,1.085,0.197,1.381-0.05C123.463,453.955,123.069,453.561,122.576,453.364z"/>
</g>
<g>
	<path fill="#937450" d="M124.006,451.835c-0.394,0.396-0.641,0.888-0.591,1.283c0.394,0.048,0.887-0.101,1.282-0.495
		c0.394-0.393,0.641-0.887,0.591-1.281C124.943,451.244,124.4,451.441,124.006,451.835z"/>
</g>
<g>
	<path fill="#937450" d="M121.787,451.787c0.345,0.443,0.839,0.689,1.233,0.641c0.099-0.395-0.049-0.887-0.394-1.332
		c-0.345-0.443-0.839-0.689-1.232-0.641C121.294,450.85,121.393,451.342,121.787,451.787z"/>
</g>
<g>
	<path fill="#937450" d="M123.463,449.764c-0.246,0.544-0.246,1.036-0.048,1.383c0.394-0.101,0.788-0.445,1.035-0.986
		c0.247-0.543,0.247-1.035,0.049-1.381C124.104,448.877,123.71,449.271,123.463,449.764z"/>
</g>
<g>
	<path fill="#937450" d="M124.203,459.281c-0.542,0.1-1.035,0.344-1.183,0.689c0.296,0.297,0.789,0.444,1.38,0.346
		c0.543-0.1,1.036-0.346,1.184-0.691C125.288,459.381,124.746,459.232,124.203,459.281z"/>
</g>
<g>
	<path fill="#937450" d="M137.318,457.407c0.395,0.394,0.542,0.937,0.493,1.331c-0.394,0.049-0.887-0.148-1.281-0.591
		c-0.395-0.396-0.542-0.938-0.494-1.331C136.431,456.766,136.924,456.963,137.318,457.407z"/>
</g>
<g>
	<path fill="#937450" d="M139.636,457.604c0.542-0.098,1.084,0.051,1.38,0.298c-0.197,0.345-0.641,0.641-1.184,0.738
		c-0.542,0.099-1.084-0.05-1.38-0.296C138.601,458,139.044,457.703,139.636,457.604z"/>
</g>
<g>
	<path fill="#937450" d="M138.207,455.828c0.345,0.445,0.492,0.938,0.394,1.333c-0.394,0-0.888-0.248-1.233-0.642
		c-0.345-0.445-0.493-0.938-0.395-1.332C137.318,455.188,137.811,455.436,138.207,455.828z"/>
</g>
<g>
	<path fill="#937450" d="M140.228,455.632c0.542-0.099,1.084,0,1.38,0.248c-0.148,0.345-0.592,0.688-1.134,0.787
		c-0.542,0.099-1.085,0-1.381-0.246C139.242,456.074,139.685,455.73,140.228,455.632z"/>
</g>
<g>
	<path fill="#937450" d="M138.896,454.004c0.395,0.396,0.641,0.888,0.591,1.281c-0.395,0.051-0.887-0.098-1.281-0.492
		c-0.396-0.394-0.642-0.887-0.592-1.281C138.009,453.463,138.501,453.61,138.896,454.004z"/>
</g>
<g>
	<path fill="#937450" d="M140.573,453.364c0.542-0.198,1.084-0.198,1.38,0.048c-0.099,0.395-0.493,0.741-1.035,0.987
		c-0.542,0.197-1.085,0.197-1.381-0.05C139.685,453.955,140.079,453.561,140.573,453.364z"/>
</g>
<g>
	<path fill="#937450" d="M139.143,451.835c0.395,0.396,0.642,0.888,0.592,1.283c-0.394,0.048-0.887-0.101-1.282-0.495
		c-0.395-0.393-0.642-0.887-0.592-1.281C138.207,451.244,138.748,451.441,139.143,451.835z"/>
</g>
<g>
	<path fill="#937450" d="M141.362,451.787c-0.346,0.443-0.838,0.689-1.233,0.641c-0.098-0.395,0.05-0.887,0.395-1.332
		c0.346-0.443,0.838-0.689,1.232-0.641C141.854,450.85,141.707,451.342,141.362,451.787z"/>
</g>
<g>
	<path fill="#937450" d="M139.685,449.764c0.247,0.544,0.247,1.036,0.049,1.383c-0.394-0.101-0.789-0.445-1.036-0.986
		c-0.246-0.543-0.246-1.035-0.048-1.381C139.044,448.877,139.438,449.271,139.685,449.764z"/>
</g>
<g>
	<path fill="#937450" d="M138.945,459.281c0.542,0.1,1.036,0.344,1.183,0.689c-0.296,0.297-0.788,0.444-1.38,0.346
		c-0.542-0.1-1.035-0.346-1.183-0.691C137.861,459.381,138.403,459.232,138.945,459.281z"/>
</g>
<g>
	<path fill="#937450" d="M356.378,559.915c-1.804,0.721-3.607,0.721-5.411,0.721c-1.442,0-2.524-0.36-3.606-0.721
		c-1.083-0.361-1.804-1.083-2.886-1.804c-0.722-0.722-1.083-1.443-1.804-2.525c-0.361-0.722-0.722-1.804-0.722-2.525
		c0-1.082,0.36-2.164,0.722-3.246c0.36-1.082,1.082-1.804,1.804-2.525c0.721-0.721,1.442-1.442,2.524-2.164s2.164-1.082,3.247-1.804
		c-1.083-1.442-1.804-2.524-2.525-3.607c-0.722-1.082-1.082-2.164-1.082-3.606c0-1.443,0.36-2.525,0.721-3.247
		c0.361-1.082,1.083-1.804,1.804-2.164c0.722-0.722,1.804-1.082,2.525-1.082c1.082-0.361,2.164-0.361,2.886-0.361
		c1.082,0,2.164,0,2.886,0.361c0.722,0.36,1.804,0.722,2.525,1.082s1.082,1.082,1.442,1.804c0.361,0.722,0.722,1.442,0.722,2.524
		c0,1.443-0.36,2.886-1.442,3.969c-1.083,1.082-2.525,2.524-4.329,3.606c1.082,1.443,2.525,2.886,3.607,4.329
		c1.082,1.442,2.524,2.886,3.607,4.329c0.721-1.083,1.803-2.165,2.524-3.607c0.722-1.443,1.804-3.247,2.886-5.051
		c0.361,0.361,0.722,1.083,1.082,1.443c0.361,0.36,0.722,0.722,1.083,1.082c-1.083,1.443-2.165,2.886-2.887,3.968
		c-1.082,1.082-2.164,2.525-3.246,3.607c0.36,0.722,1.082,1.082,1.443,1.804c0.721,0.722,1.082,1.082,1.803,1.804
		c0.722,0.722,1.083,1.082,1.804,1.804c0.722,0.721,1.083,1.082,1.804,1.442c-1.082,0-2.164,0-2.886,0s-1.804,0-2.524,0
		c-0.722,0-1.083,0-1.804,0c-0.722,0-1.082,0-1.804,0l-2.164-2.886C359.985,558.832,358.182,559.554,356.378,559.915z
		 M348.803,553.782c0.36,0.722,0.722,1.443,1.443,2.164c0.721,0.722,1.082,1.083,2.164,1.443c0.722,0.36,1.804,0.722,2.886,0.722
		s1.804,0,2.524-0.361c0.722-0.36,1.443-0.721,2.165-1.442c-1.443-1.804-2.886-3.247-3.968-5.05
		c-1.443-1.804-2.525-3.247-3.969-5.051c-1.082,0.722-1.803,1.804-2.524,2.525s-1.082,1.804-1.082,2.886
		C348.442,552.34,348.442,553.061,348.803,553.782z M353.853,537.91c0.722,1.083,1.083,2.165,1.804,3.247
		c0.361-0.361,0.722-0.722,1.082-1.082c0.361-0.361,0.722-1.083,1.083-1.443c0.36-0.722,0.721-1.082,1.082-1.804
		c0.36-0.721,0.36-1.442,0.36-2.164c0-1.082-0.36-1.804-1.082-2.525c-0.722-0.721-1.443-1.082-2.164-1.082
		c-0.722,0-1.804,0.361-2.165,0.722c-0.721,0.722-1.082,1.442-1.082,2.525C353.132,535.746,353.492,536.828,353.853,537.91z"/>
	<path fill="#937450" d="M422.39,560.275c-0.721,0-1.442,0-2.164,0s-1.442,0-1.804,0c-0.36,0-1.082,0-1.804,0s-1.442,0-1.804,0
		c-0.36-1.443-1.082-2.886-1.442-4.689c-0.722-1.442-1.082-2.886-1.804-4.689c-1.082,0-1.804,0-2.886,0s-1.804,0-2.886,0
		c-0.722,0-1.443,0-2.164,0c-0.722,0-1.443,0-2.165,0c-0.722,1.443-1.082,2.886-1.804,4.689c-0.721,1.443-1.082,2.886-1.442,4.689
		c-0.36,0-0.722,0-1.082,0c-0.361,0-0.722,0-1.082,0c-0.361,0-0.722,0-1.083,0c-0.36,0-0.721,0-1.082,0
		c0.361-0.722,0.722-1.804,1.443-3.246c0.721-1.443,1.082-2.886,2.164-4.689c0.722-1.804,1.443-3.607,2.164-5.771
		c0.722-2.165,1.804-3.969,2.525-6.133s1.804-3.968,2.525-6.132c0.721-2.165,1.442-3.968,2.164-5.411c0.36,0,0.722,0,0.722,0
		c0.36,0,0.721,0,0.721,0c0.361,0,0.722,0,0.722,0c0.361,0,0.722,0,0.722,0c1.082,2.525,2.164,5.411,3.246,8.297
		s2.165,5.771,3.247,8.657s2.164,5.411,3.246,7.936C420.586,556.308,421.669,558.832,422.39,560.275z M406.157,537.91
		c-0.722,1.804-1.442,3.607-2.164,5.411s-1.443,3.607-2.164,5.411h8.296c-0.721-1.804-1.442-3.607-1.803-5.411
		C407.601,541.518,406.879,539.714,406.157,537.91z"/>
	<path fill="#937450" d="M437.901,531.418c-1.443,0-2.525,0.36-3.247,1.082s-1.442,1.804-1.442,2.886s0.36,2.164,1.082,2.886
		s1.442,1.442,2.524,1.804c1.083,0.722,2.165,1.082,3.247,1.804c1.082,0.721,2.164,1.082,3.246,1.804
		c1.082,0.721,1.804,1.803,2.525,2.886c0.722,1.082,1.082,2.524,1.082,4.328c0,1.443-0.36,2.886-0.722,3.968
		c-0.721,1.083-1.442,2.165-2.524,3.247c-1.083,0.721-2.165,1.442-3.607,2.164c-1.443,0.36-3.247,0.722-5.05,0.722
		c-1.804,0-3.247,0-4.329-0.722c-1.082-0.36-2.164-0.722-2.886-1.443c0.36-1.082,0.722-2.164,0.722-2.885
		c0.36-0.722,0.36-1.804,0.722-2.887h0.721c0,0.722,0.361,1.443,0.722,1.804c0.36,0.722,0.722,1.083,1.082,1.443
		c0.722,0.36,1.082,0.722,1.804,1.082s1.443,0.36,2.525,0.36c1.804,0,3.246-0.36,3.968-1.442s1.442-2.164,1.442-3.247
		c0-1.082-0.36-2.164-1.082-2.886c-0.721-0.721-1.442-1.442-2.524-1.803c-1.083-0.722-2.165-1.083-3.247-1.804
		c-1.082-0.722-2.164-1.082-3.246-1.804s-1.804-1.804-2.525-2.886s-1.082-2.525-1.082-4.329c0-1.442,0.36-2.886,0.722-3.968
		c0.722-1.082,1.442-2.164,2.164-2.886c1.082-0.722,2.164-1.442,3.246-1.804c1.083-0.36,2.525-0.722,3.969-0.722
		c1.804,0,2.886,0.361,4.328,0.722c1.082,0.361,2.164,1.082,3.247,1.804c-0.361,0.722-0.361,1.442-0.722,2.164
		c-0.361,0.722-0.361,1.443-0.722,2.525h-0.722C442.59,532.86,440.787,531.418,437.901,531.418z"/>
	<path fill="#937450" d="M463.151,531.418c-1.442,0-2.525,0.36-3.246,1.082c-0.722,0.722-1.443,1.804-1.443,2.886
		s0.361,2.164,1.082,2.886c0.722,0.722,1.443,1.442,2.525,1.804c1.082,0.722,2.164,1.082,3.246,1.804
		c1.083,0.721,2.165,1.082,3.247,1.804c1.082,0.721,1.804,1.803,2.524,2.886c0.722,1.082,1.083,2.524,1.083,4.328
		c0,1.443-0.361,2.886-0.722,3.968c-0.722,1.083-1.443,2.165-2.525,3.247c-1.082,0.721-2.524,1.442-3.607,2.164
		c-1.442,0.36-3.246,0.722-5.05,0.722s-3.246,0-4.328-0.722c-1.083-0.36-2.165-0.722-2.887-1.443
		c0.361-1.082,0.722-2.164,0.722-2.885c0.361-0.722,0.361-1.804,0.722-2.887h0.722c0,0.722,0.36,1.443,0.722,1.804
		c0.36,0.722,0.721,1.083,1.082,1.443c0.721,0.36,1.082,0.722,1.804,1.082c0.721,0.36,1.442,0.36,2.524,0.36
		c1.804,0,3.247-0.36,3.968-1.442c0.722-1.082,1.443-2.164,1.443-3.247c0-1.082-0.36-2.164-1.082-2.886
		c-0.722-0.721-1.443-1.442-2.525-1.803c-1.082-0.722-2.164-1.083-3.246-1.804c-1.082-0.722-2.165-1.082-3.247-1.804
		s-1.804-1.804-2.524-2.886c-0.722-1.082-1.083-2.525-1.083-4.329c0-1.442,0.361-2.886,0.722-3.968
		c0.722-1.082,1.443-2.164,2.165-2.886c1.082-0.722,2.164-1.442,3.246-1.804c1.082-0.36,2.525-0.722,3.968-0.722
		c1.804,0,2.886,0.361,4.329,0.722c1.442,0.36,2.164,1.082,3.246,1.804c-0.36,0.722-0.36,1.442-0.722,2.164
		c-0.36,0.722-0.36,1.443-0.721,2.525h-0.722C467.841,532.86,465.677,531.418,463.151,531.418z"/>
	<path fill="#937450" d="M479.384,538.632c0.722-1.804,2.164-3.607,3.607-5.05c1.442-1.443,3.246-2.525,5.411-3.607
		c2.164-0.722,4.689-1.082,7.214-1.082c2.525,0,4.689,0.36,6.854,1.082c2.165,0.722,3.969,1.804,5.411,2.886
		c1.443,1.443,2.886,2.886,3.607,5.05c0.722,2.165,1.442,4.329,1.442,7.215c0,2.164-0.36,4.329-1.442,6.493
		c-0.722,1.804-2.164,3.607-3.607,5.05c-1.442,1.443-3.246,2.525-5.411,3.607c-2.164,0.722-4.328,1.082-6.854,1.082
		c-2.524,0-4.689-0.36-6.854-0.722c-2.164-0.36-3.968-1.442-5.411-2.886c-1.442-1.442-2.886-2.886-3.606-5.05
		c-1.083-2.164-1.443-4.329-1.443-7.215C477.941,542.6,478.302,540.436,479.384,538.632z M504.273,538.632
		c-0.36-1.442-1.082-2.886-2.164-3.968s-1.804-1.804-3.246-2.525c-1.083-0.721-2.525-0.721-3.969-0.721
		c-1.442,0-2.886,0.36-3.968,1.082s-2.164,1.804-3.246,2.886c-0.722,1.082-1.443,2.886-1.804,4.328
		c-0.36,1.804-0.722,3.607-0.722,5.411c0,2.525,0.361,4.329,0.722,6.133c0.722,1.803,1.082,2.886,2.164,3.968
		c0.722,1.082,1.804,1.804,2.886,2.164s2.525,0.722,3.607,0.722c1.443,0,2.525-0.361,3.968-0.722
		c1.082-0.722,2.165-1.442,3.247-2.525c1.082-1.082,1.804-2.524,2.164-4.328c0.722-1.804,0.722-3.968,0.722-6.493
		C505.355,541.879,504.995,540.075,504.273,538.632z"/>
	<path fill="#937450" d="M545.035,557.029c0,0.721-0.36,1.442-0.36,1.803c-2.525,1.083-5.411,1.804-9.379,1.804
		c-2.525,0-5.05-0.36-6.854-1.082c-2.165-0.722-3.969-1.804-5.411-3.246c-1.443-1.443-2.525-2.886-3.246-4.689
		c-0.722-1.804-1.083-3.968-1.083-6.133c0-3.246,0.361-5.771,1.443-7.936s2.164-3.968,3.968-5.411
		c1.804-1.442,3.607-2.164,5.771-2.886c2.164-0.721,4.329-1.082,6.854-1.082c0.722,0,1.804,0,2.525,0s1.804,0.361,2.525,0.361
		c0.721,0.36,1.442,0.36,2.164,0.721c0.722,0.361,1.442,0.722,1.804,0.722c-0.361,0.722-0.722,1.443-0.722,2.164
		c0,0.722-0.36,1.443-0.36,2.165h-0.722c-1.082-1.443-2.525-2.525-3.607-3.247c-1.082-0.721-2.525-1.082-4.328-1.082
		c-1.083,0-2.525,0.361-3.607,0.722c-1.082,0.722-2.164,1.442-3.247,2.525c-1.082,1.082-1.804,2.524-2.524,4.328
		c-0.722,1.804-1.082,3.968-1.082,6.132c0,2.525,0.36,4.329,1.082,5.772c0.721,1.804,1.442,2.886,2.524,3.968
		c1.083,1.082,2.165,1.804,3.607,2.164c1.443,0.361,2.525,0.722,3.968,0.722c0.722,0,1.443,0,2.165-0.361
		c0.721,0,1.442-0.36,2.164-0.721c0.722-0.361,1.442-0.722,2.164-1.082c0.722-0.361,1.082-0.722,1.804-1.443l0.722,0.36
		C545.396,555.946,545.035,556.668,545.035,557.029z"/>
	<path fill="#937450" d="M553.332,535.024c0-1.803,0-3.968-0.361-5.771c0.722,0,1.082,0,1.804,0s1.082,0,2.165,0
		c0.721,0,1.442,0,2.164,0s1.082,0,1.804,0c0,1.804-0.361,3.969-0.361,5.771c0,1.804,0,3.969,0,6.854v6.132c0,2.525,0,4.689,0,6.854
		c0,1.804,0,3.968,0.361,5.771c-0.722,0-1.082,0-1.804,0s-1.082,0-2.164,0c-0.722,0-1.443,0-2.165,0s-1.082,0-1.804,0
		c0-1.804,0.361-3.606,0.361-5.771c0-1.804,0-3.968,0-6.854v-6.132C553.692,539.354,553.332,537.189,553.332,535.024z"/>
	<path fill="#937450" d="M596.258,560.275c-0.722,0-1.443,0-2.164,0c-0.722,0-1.443,0-1.804,0c-0.722,0-1.082,0-1.804,0
		s-1.443,0-1.804,0c-0.36-1.443-1.082-2.886-1.443-4.689c-0.721-1.442-1.082-2.886-1.804-4.689c-1.082,0-1.803,0-2.885,0
		c-1.083,0-1.804,0-2.887,0c-0.721,0-1.442,0-2.164,0s-1.442,0-2.525,0c-0.721,1.443-1.082,2.886-1.803,4.689
		c-0.722,1.443-1.083,2.886-1.443,4.689c-0.36,0-0.722,0-1.082,0s-0.722,0-1.082,0c-0.361,0-0.722,0-1.082,0
		c-0.361,0-0.722,0-1.082,0c0.36-0.722,0.721-1.804,1.442-3.246c0.722-1.443,1.082-2.886,2.164-4.689
		c0.722-1.804,1.443-3.607,2.165-5.771c0.721-2.165,1.803-3.969,2.524-6.133s1.804-3.968,2.525-6.132
		c0.722-2.165,1.442-3.968,2.164-5.411c0.361,0,0.722,0,0.722,0c0.36,0,0.722,0,0.722,0c0.36,0,0.721,0,0.721,0
		c0.361,0,0.722,0,0.722,0c1.082,2.525,2.164,5.411,3.247,8.297c1.082,2.886,2.164,5.771,3.246,8.657s2.164,5.411,3.246,7.936
		C594.454,556.308,595.176,558.832,596.258,560.275z M580.025,537.91c-0.722,1.804-1.443,3.607-2.164,5.411
		c-0.722,1.804-1.443,3.607-2.165,5.411h8.297c-0.722-1.804-1.442-3.607-1.804-5.411
		C581.468,541.518,580.747,539.714,580.025,537.91z"/>
	<path fill="#937450" d="M605.637,534.304c0-0.722,0-1.083,0-1.443c-0.361,0-1.082,0-1.804,0s-1.443,0-2.165,0
		c-0.721,0-1.442,0-2.164,0s-1.442,0-2.164,0.361c0-0.361,0-0.722,0-1.083c0-0.36,0-0.721,0-1.082c0-0.36,0-0.721,0-1.082
		c0-0.36,0-0.722,0-1.082c1.082,0,1.804,0,2.886,0s1.804,0,2.525,0c0.721,0,1.804,0,2.886,0s2.164,0,3.606,0
		c1.443,0,2.525,0,3.607,0s1.804,0,2.886,0c0.722,0,1.804,0,2.525,0s1.804,0,2.525,0c0,0.36,0,0.722,0,1.082
		c0,0.361,0,0.722,0,1.082c0,0.361,0,0.722,0,1.082c0,0.361,0,0.722,0,1.083c-0.722,0-1.083,0-2.165-0.361c-0.722,0-1.442,0-2.164,0
		s-1.443,0-2.164,0c-0.722,0-1.083,0-1.804,0c0,0,0,0.361,0,0.722s0,0.722,0,1.082v2.525v11.182c0,2.525,0,4.689,0,6.854
		c0,1.804,0,3.968,0.36,5.771c-0.722,0-1.082,0-1.804,0c-0.721,0-1.082,0-2.164,0c-0.722,0-1.443,0-2.164,0
		c-0.722,0-1.082,0-1.804,0c0-1.804,0.36-3.607,0.36-5.771c0-1.804,0-3.969,0-6.854v-11.903
		C605.637,535.746,605.637,535.024,605.637,534.304z"/>
	<path fill="#937450" d="M626.919,535.024c0-1.803,0-3.968-0.36-5.771c1.442,0,2.886,0,3.968,0c1.442,0,2.524,0,3.968,0
		c2.164,0,4.329,0,5.771,0c1.804,0,2.886,0,3.607,0c0,0.361,0,1.083,0,1.804c0,0.361,0,0.722,0,1.082c0,0.361,0,0.722,0,1.083
		c-0.722,0-1.804,0-2.886,0s-2.164,0-2.886,0c-1.082,0-1.804,0-2.525,0s-1.442,0-1.804,0c0,1.803,0,3.246-0.36,5.05
		c0,1.804,0,3.246,0,5.05c1.804,0,3.607,0,5.411,0c1.442,0,3.246,0,5.05-0.36c0,0.721,0,1.082,0,1.082c0,0.36,0,0.722,0,0.722
		c0,0.36,0,0.36,0,0.721c0,0.361,0,0.722,0,1.083c-3.607-0.361-6.854-0.361-10.461-0.361c0,1.082,0,1.804,0,2.886s0,1.804,0,2.886
		c0,1.804,0,3.968,0,5.771c1.804,0,3.607,0,5.05,0c1.443,0,3.607-0.36,5.411-0.36c0,0.36,0,0.722,0,1.082s0,0.722,0,1.082
		c0,0.361,0,0.722,0,1.082c0,0.361,0,0.361,0,0.722c-0.722,0-1.804,0-2.886,0s-2.886,0-5.05,0c-1.804,0-3.247,0-4.329,0
		s-2.164,0-2.886,0s-1.082,0-1.443,0c-0.36,0-0.721,0-0.721,0c0-1.804,0-3.607,0.36-5.771c0-1.804,0-3.968,0-6.854V542.6
		C627.279,539.354,627.279,537.189,626.919,535.024z"/>
	<path fill="#937450" d="M660.827,531.418c-1.443,0-2.525,0.36-3.247,1.082c-0.721,0.722-1.442,1.804-1.442,2.886
		s0.36,2.164,1.082,2.886s1.442,1.442,2.525,1.804c1.082,0.722,2.164,1.082,3.246,1.804c1.082,0.721,2.164,1.082,3.246,1.804
		c1.083,0.721,1.804,1.803,2.525,2.886c0.722,1.082,1.082,2.524,1.082,4.328c0,1.443-0.36,2.886-0.722,3.968
		c-0.721,1.083-1.442,2.165-2.524,3.247c-1.082,0.721-2.525,1.442-3.607,2.164c-1.443,0.36-3.246,0.722-5.05,0.722
		s-3.247,0-4.329-0.722c-1.082-0.36-2.164-0.722-2.886-1.443c0.361-1.082,0.722-2.164,0.722-2.885
		c0.36-0.722,0.36-1.804,0.722-2.887h0.721c0,0.722,0.361,1.443,0.722,1.804c0.36,0.722,0.722,1.083,1.082,1.443
		c0.722,0.36,1.082,0.722,1.804,1.082s1.443,0.36,2.525,0.36c1.804,0,3.246-0.36,3.968-1.442s1.442-2.164,1.442-3.247
		c0-1.082-0.36-2.164-1.082-2.886c-0.721-0.721-1.442-1.442-2.524-1.803c-1.083-0.722-2.165-1.083-3.247-1.804
		c-1.082-0.722-2.164-1.082-3.246-1.804s-1.804-1.804-2.525-2.886c-0.721-1.082-1.082-2.525-1.082-4.329
		c0-1.442,0.361-2.886,0.722-3.968c0.722-1.082,1.442-2.164,2.164-2.886c1.082-0.722,2.164-1.442,3.247-1.804
		c1.082-0.36,2.524-0.722,3.968-0.722c1.804,0,2.886,0.361,4.328,0.722c1.443,0.36,2.165,1.082,3.247,1.804
		c-0.361,0.722-0.361,1.442-0.722,2.164s-0.36,1.443-0.722,2.525h-0.722C665.155,532.86,663.352,531.418,660.827,531.418z"/>
</g>
</svg>
