<?xml version="1.0" encoding="utf-8"?>
<!-- Generator: Adobe Illustrator 15.1.0, SVG Export Plug-In . SVG Version: 6.00 Build 0)  -->
<!DOCTYPE svg PUBLIC "-//W3C//DTD SVG 1.1//EN" "http://www.w3.org/Graphics/SVG/1.1/DTD/svg11.dtd">
<svg version="1.1" id="Layer_1" xmlns="http://www.w3.org/2000/svg" xmlns:xlink="http://www.w3.org/1999/xlink" x="0px" y="0px"
	 width="89.383px" height="89.4px" viewBox="269.123 183.972 89.383 89.4" enable-background="new 269.123 183.972 89.383 89.4"
	 xml:space="preserve">
<text transform="matrix(1 0 0 1 72 683.9995)" font-family="'HelveticaNeue-Bold'" font-size="36">Created by BraveBros.</text>
<text transform="matrix(1 0 0 1 72 719.9995)" font-family="'HelveticaNeue-Bold'" font-size="36">from the Noun Project</text>
<g>
	<circle opacity="0.63" fill="#67281F" cx="313.823" cy="228.671" r="44.7"/>
	<path fill="#67281F" d="M293.247,211.685c0,0,7.879,9.824,20.305,10.056c0,0-0.653-5.076,1.788-8.517
		c2.436-3.452,4.872-3.471,4.872-3.471s6.706-1.102,8.81,3.105c0,0,4.439-1.639,6.311-2.104c0,0-0.47,2.657-3.039,4.951
		c0,0,3.504-0.976,4.208-0.976c0,0-0.933,2.569-3.737,4.207c0,0-0.238,12.393-7.252,20.105c0,0-14.729,15.663-34.368,4.909
		c0,0,8.651,0.237,13.324-4.203c0,0-7.711-1.41-8.647-6.551h3.035c0,0-7.716-3.975-6.311-9.82l3.508,0.702
		C296.053,224.078,289.041,220.336,293.247,211.685z"/>
</g>
<g>
	<circle opacity="0.63" fill="#FFFFFF" cx="358.564" cy="-40.438" r="19.926"/>
	<g>
		<path fill="none" stroke="#FFFFFF" stroke-width="0.5" stroke-miterlimit="10" d="M351.466-48.251v3.564h0.713v-3.921h0.477v3.921
			h0.888v-4.218h0.419v4.218h0.473v-4.218h9.802c0,0,2.259,0.654,2.674,2.672v11.407c0,0-0.237,2.316-2.257,2.852h-11.645
			c0,0-2.257,0.178-2.791-2.613v-11.466C350.218-46.053,350.28-47.893,351.466-48.251z"/>
		<path fill="none" stroke="#FFFFFF" stroke-width="0.5" stroke-miterlimit="10" d="M362.752-46.767c0,0-0.119-0.711,0.772-0.711
			h1.544c0,0,0.237-0.167,0.417,0.391v1.807c0,0,0.002,0.712-0.594,0.712h-1.664c0,0-0.605,0.059-0.479-0.712L362.752-46.767z"/>
		
			<line fill="none" stroke="#FFFFFF" stroke-width="0.5" stroke-miterlimit="10" x1="350.218" y1="-43.201" x2="366.911" y2="-43.201"/>
		<circle fill="none" stroke="#FFFFFF" stroke-width="0.5" stroke-miterlimit="10" cx="358.564" cy="-40.315" r="4.129"/>
		<circle fill="#FFFFFF" cx="358.505" cy="-40.315" r="2.346"/>
	</g>
</g>
<g>
	<circle opacity="0.63" fill="#FFFFFF" cx="413.121" cy="-40.047" r="19.926"/>
	<path fill="#FFFFFF" d="M409.727-31.887c0,0-7.942-6.162-3.402-12.971c0,0,2.744-3.803,7.194-3.803c0,0,1.606-0.031,3.754,1.223
		c1.437,0.84,3.063,1.77,3.664,4.452c0.595,2.661,0.332,2.591,0.173,4.069c0,0-1.429,10.3-10.188,7.029l1.438-3.764
		c0,0,2.474,3.132,5.554-1.668c0,0,3.219-7.044-4.048-8.528c0,0-5.24-1.106-6.395,5.089c0,0,0.876,5.137,2.255,3.439l0.186-0.478
		c0,0-2.064-4.839,1.195-6.016c0,0,4.967-1.738,5.426,2.42c0,0,0.276,5.048-2.574,4.852c0,0-1.864,0.245-0.841-2.997
		c0,0,1.063-2.469-0.758-2.845c0,0-2.017,0.549-1.529,3.325c0,0,0.644-0.454-0.186,2.318
		C410.646-36.739,409.636-32.975,409.727-31.887z"/>
</g>
</svg>
